<?xml version="1.0" standalone="no"?>
 <!DOCTYPE svg PUBLIC "-//W3C//DTD SVG 1.1//EN" 
 "http://www.w3.org/Graphics/SVG/1.1/DTD/svg11.dtd"> 
<svg xmlns="http://www.w3.org/2000/svg" version="1.1" 
    width="29.7002cm" height="21.0007cm" viewBox="0 0 116930 82680 ">
<title>SVG Picture created as SolarCharger2020-F_Cu.svg date 2020/12/17 14:49:22 </title>
  <desc>Picture generated by PCBNEW </desc>
<g style="fill:#000000; fill-opacity:1;stroke:#000000; stroke-opacity:1;
stroke-linecap:round; stroke-linejoin:round; "
 transform="translate(0 0) scale(1 1)">
</g>
<g style="fill:#000000; fill-opacity:0.0; 
stroke:#000000; stroke-width:-0.000393701; stroke-opacity:1; 
stroke-linecap:round; stroke-linejoin:round;">
</g>
<g style="fill:#000000; fill-opacity:1.0; 
stroke:#000000; stroke-width:3.93701; stroke-opacity:1; 
stroke-linecap:round; stroke-linejoin:round;">
<path style="fill:#000000; fill-opacity:1.0; 
stroke:#000000; stroke-width:3.93701; stroke-opacity:1; 
stroke-linecap:round; stroke-linejoin:round;fill-rule:evenodd;"
d="M 59416,35979
59586,36021
59747,36061
59894,36096
60026,36128
60139,36155
60231,36176
60298,36191
60339,36199
60350,36199
60343,36181
60326,36136
60300,36070
60267,35988
60229,35894
60217,35865
60178,35768
60143,35683
60116,35614
60098,35564
60090,35539
60089,35537
60106,35542
60151,35558
60224,35584
60321,35621
60441,35666
60582,35719
60742,35780
60918,35847
61109,35920
61313,35999
61362,36018
61390,36026
61400,36025
61386,36015
61348,35990
61290,35953
61215,35906
61128,35853
61087,35827
60846,35680
60632,35549
60444,35435
60280,35335
60140,35250
60021,35179
59924,35121
59846,35075
59786,35041
59743,35018
59716,35004
59704,35000
59703,35001
59705,35020
59716,35067
59734,35137
59757,35225
59784,35327
59807,35409
59837,35518
59864,35616
59886,35698
59902,35761
59911,35798
59912,35808
59898,35800
59859,35774
59798,35732
59717,35677
59620,35610
59507,35533
59383,35447
59250,35354
59204,35322
59067,35228
58940,35139
58823,35058
58719,34987
58632,34927
58564,34881
58516,34849
58493,34834
58491,34833
58489,34849
58487,34894
58485,34964
58484,35054
58483,35161
58483,35279
58483,35289
58483,35745
59416,35979
Z" /> 
<g >
</g>
<g style="fill:#000000; fill-opacity:1.0; 
stroke:#000000; stroke-width:0; stroke-opacity:1; 
stroke-linecap:round; stroke-linejoin:round;">
<path style="fill:#000000; fill-opacity:1.0; 
stroke:#000000; stroke-width:0; stroke-opacity:1; 
stroke-linecap:round; stroke-linejoin:round;fill-rule:evenodd;"
d="M 54509,51212
53328,51212
53328,50425
54509,50425
54509,51212
Z" /> 
</g>
<g style="fill:#000000; fill-opacity:1.0; 
stroke:#000000; stroke-width:787.402; stroke-opacity:1; 
stroke-linecap:round; stroke-linejoin:round;">
</g>
<g style="fill:#000000; fill-opacity:0.0; 
stroke:#000000; stroke-width:787.402; stroke-opacity:1; 
stroke-linecap:round; stroke-linejoin:round;">
<path d="M53722 22472
L54116 22472
" />
</g>
<g >
</g>
<g style="fill:#000000; fill-opacity:1.0; 
stroke:#000000; stroke-width:0; stroke-opacity:1; 
stroke-linecap:round; stroke-linejoin:round;">
<circle cx="48650" cy="26550" r="354.331" /> 
</g>
<g style="fill:#000000; fill-opacity:1.0; 
stroke:#000000; stroke-width:39.3701; stroke-opacity:1; 
stroke-linecap:round; stroke-linejoin:round;">
</g>
<g style="fill:#000000; fill-opacity:1.0; 
stroke:#000000; stroke-width:0; stroke-opacity:1; 
stroke-linecap:round; stroke-linejoin:round;">
<circle cx="48650" cy="27350" r="354.331" /> 
</g>
<g style="fill:#000000; fill-opacity:1.0; 
stroke:#000000; stroke-width:39.3701; stroke-opacity:1; 
stroke-linecap:round; stroke-linejoin:round;">
</g>
<g style="fill:#000000; fill-opacity:1.0; 
stroke:#000000; stroke-width:0; stroke-opacity:1; 
stroke-linecap:round; stroke-linejoin:round;">
<circle cx="47750" cy="26000" r="492" /> 
</g>
<g style="fill:#000000; fill-opacity:1.0; 
stroke:#000000; stroke-width:39.3701; stroke-opacity:1; 
stroke-linecap:round; stroke-linejoin:round;">
</g>
<g style="fill:#000000; fill-opacity:1.0; 
stroke:#000000; stroke-width:0; stroke-opacity:1; 
stroke-linecap:round; stroke-linejoin:round;">
<path style="fill:#000000; fill-opacity:1.0; 
stroke:#000000; stroke-width:0; stroke-opacity:1; 
stroke-linecap:round; stroke-linejoin:round;fill-rule:evenodd;"
d="M 48242,28492
47258,28492
47258,27508
48242,27508
48242,28492
Z" /> 
</g>
<g >
<circle cx="48650" cy="46550" r="354.331" /> 
</g>
<g style="fill:#000000; fill-opacity:1.0; 
stroke:#000000; stroke-width:39.3701; stroke-opacity:1; 
stroke-linecap:round; stroke-linejoin:round;">
</g>
<g style="fill:#000000; fill-opacity:1.0; 
stroke:#000000; stroke-width:0; stroke-opacity:1; 
stroke-linecap:round; stroke-linejoin:round;">
<circle cx="48650" cy="47350" r="354.331" /> 
</g>
<g style="fill:#000000; fill-opacity:1.0; 
stroke:#000000; stroke-width:39.3701; stroke-opacity:1; 
stroke-linecap:round; stroke-linejoin:round;">
</g>
<g style="fill:#000000; fill-opacity:1.0; 
stroke:#000000; stroke-width:0; stroke-opacity:1; 
stroke-linecap:round; stroke-linejoin:round;">
<circle cx="47750" cy="46000" r="492" /> 
</g>
<g style="fill:#000000; fill-opacity:1.0; 
stroke:#000000; stroke-width:39.3701; stroke-opacity:1; 
stroke-linecap:round; stroke-linejoin:round;">
</g>
<g style="fill:#000000; fill-opacity:1.0; 
stroke:#000000; stroke-width:0; stroke-opacity:1; 
stroke-linecap:round; stroke-linejoin:round;">
<path style="fill:#000000; fill-opacity:1.0; 
stroke:#000000; stroke-width:0; stroke-opacity:1; 
stroke-linecap:round; stroke-linejoin:round;fill-rule:evenodd;"
d="M 48242,48492
47258,48492
47258,47508
48242,47508
48242,48492
Z" /> 
</g>
<g >
<path style="fill:#000000; fill-opacity:1.0; 
stroke:#000000; stroke-width:0; stroke-opacity:1; 
stroke-linecap:round; stroke-linejoin:round;fill-rule:evenodd;"
d="M 48175,38655
48175,38557
48372,38557
48372,38655
48175,38655
Z" /> 
<path style="fill:#000000; fill-opacity:1.0; 
stroke:#000000; stroke-width:0; stroke-opacity:1; 
stroke-linecap:round; stroke-linejoin:round;fill-rule:evenodd;"
d="M 48175,38852
48175,38753
48372,38753
48372,38852
48175,38852
Z" /> 
<path style="fill:#000000; fill-opacity:1.0; 
stroke:#000000; stroke-width:0; stroke-opacity:1; 
stroke-linecap:round; stroke-linejoin:round;fill-rule:evenodd;"
d="M 48175,39442
48175,39344
48372,39344
48372,39442
48175,39442
Z" /> 
<path style="fill:#000000; fill-opacity:1.0; 
stroke:#000000; stroke-width:0; stroke-opacity:1; 
stroke-linecap:round; stroke-linejoin:round;fill-rule:evenodd;"
d="M 48175,39246
48175,39147
48372,39147
48372,39246
48175,39246
Z" /> 
<path style="fill:#000000; fill-opacity:1.0; 
stroke:#000000; stroke-width:0; stroke-opacity:1; 
stroke-linecap:round; stroke-linejoin:round;fill-rule:evenodd;"
d="M 48175,39049
48175,38950
48372,38950
48372,39049
48175,39049
Z" /> 
<path style="fill:#000000; fill-opacity:1.0; 
stroke:#000000; stroke-width:0; stroke-opacity:1; 
stroke-linecap:round; stroke-linejoin:round;fill-rule:evenodd;"
d="M 47427,39442
47427,39344
47624,39344
47624,39442
47427,39442
Z" /> 
<path style="fill:#000000; fill-opacity:1.0; 
stroke:#000000; stroke-width:0; stroke-opacity:1; 
stroke-linecap:round; stroke-linejoin:round;fill-rule:evenodd;"
d="M 47427,39246
47427,39147
47624,39147
47624,39246
47427,39246
Z" /> 
<path style="fill:#000000; fill-opacity:1.0; 
stroke:#000000; stroke-width:0; stroke-opacity:1; 
stroke-linecap:round; stroke-linejoin:round;fill-rule:evenodd;"
d="M 47427,38655
47427,38557
47624,38557
47624,38655
47427,38655
Z" /> 
<path style="fill:#000000; fill-opacity:1.0; 
stroke:#000000; stroke-width:0; stroke-opacity:1; 
stroke-linecap:round; stroke-linejoin:round;fill-rule:evenodd;"
d="M 47427,38852
47427,38753
47624,38753
47624,38852
47427,38852
Z" /> 
<path style="fill:#000000; fill-opacity:1.0; 
stroke:#000000; stroke-width:0; stroke-opacity:1; 
stroke-linecap:round; stroke-linejoin:round;fill-rule:evenodd;"
d="M 47734,39472
47734,38527
48065,38527
48065,39472
47734,39472
Z" /> 
<path style="fill:#000000; fill-opacity:1.0; 
stroke:#000000; stroke-width:0; stroke-opacity:1; 
stroke-linecap:round; stroke-linejoin:round;fill-rule:evenodd;"
d="M 47427,39049
47427,38950
47624,38950
47624,39049
47427,39049
Z" /> 
</g>
<g >
</g>
<g >
<path style="fill:#000000; fill-opacity:1.0; 
stroke:#000000; stroke-width:0; stroke-opacity:1; 
stroke-linecap:round; stroke-linejoin:round;fill-rule:evenodd;"
d="M 48264,37149
48264,36677
48736,36677
48736,37149
48264,37149
Z" /> 
<path style="fill:#000000; fill-opacity:1.0; 
stroke:#000000; stroke-width:0; stroke-opacity:1; 
stroke-linecap:round; stroke-linejoin:round;fill-rule:evenodd;"
d="M 48264,36323
48264,35851
48736,35851
48736,36323
48264,36323
Z" /> 
</g>
<g >
<path style="fill:#000000; fill-opacity:1.0; 
stroke:#000000; stroke-width:0; stroke-opacity:1; 
stroke-linecap:round; stroke-linejoin:round;fill-rule:evenodd;"
d="M 48264,34323
48264,33851
48736,33851
48736,34323
48264,34323
Z" /> 
<path style="fill:#000000; fill-opacity:1.0; 
stroke:#000000; stroke-width:0; stroke-opacity:1; 
stroke-linecap:round; stroke-linejoin:round;fill-rule:evenodd;"
d="M 48264,35149
48264,34677
48736,34677
48736,35149
48264,35149
Z" /> 
</g>
<g >
<path style="fill:#000000; fill-opacity:1.0; 
stroke:#000000; stroke-width:0; stroke-opacity:1; 
stroke-linecap:round; stroke-linejoin:round;fill-rule:evenodd;"
d="M 47994,40954
48505,40954
48505,41545
47994,41545
47994,40954
Z" /> 
<path style="fill:#000000; fill-opacity:1.0; 
stroke:#000000; stroke-width:0; stroke-opacity:1; 
stroke-linecap:round; stroke-linejoin:round;fill-rule:evenodd;"
d="M 48742,40954
49253,40954
49253,41545
48742,41545
48742,40954
Z" /> 
</g>
<g >
<path style="fill:#000000; fill-opacity:1.0; 
stroke:#000000; stroke-width:0; stroke-opacity:1; 
stroke-linecap:round; stroke-linejoin:round;fill-rule:evenodd;"
d="M 47142,40954
47653,40954
47653,41545
47142,41545
47142,40954
Z" /> 
<path style="fill:#000000; fill-opacity:1.0; 
stroke:#000000; stroke-width:0; stroke-opacity:1; 
stroke-linecap:round; stroke-linejoin:round;fill-rule:evenodd;"
d="M 46394,40954
46905,40954
46905,41545
46394,41545
46394,40954
Z" /> 
</g>
<g >
<path style="fill:#000000; fill-opacity:1.0; 
stroke:#000000; stroke-width:0; stroke-opacity:1; 
stroke-linecap:round; stroke-linejoin:round;fill-rule:evenodd;"
d="M 46704,37005
46704,36494
47295,36494
47295,37005
46704,37005
Z" /> 
<path style="fill:#000000; fill-opacity:1.0; 
stroke:#000000; stroke-width:0; stroke-opacity:1; 
stroke-linecap:round; stroke-linejoin:round;fill-rule:evenodd;"
d="M 46704,36257
46704,35746
47295,35746
47295,36257
46704,36257
Z" /> 
</g>
<g >
<path style="fill:#000000; fill-opacity:1.0; 
stroke:#000000; stroke-width:0; stroke-opacity:1; 
stroke-linecap:round; stroke-linejoin:round;fill-rule:evenodd;"
d="M 46704,34257
46704,33746
47295,33746
47295,34257
46704,34257
Z" /> 
<path style="fill:#000000; fill-opacity:1.0; 
stroke:#000000; stroke-width:0; stroke-opacity:1; 
stroke-linecap:round; stroke-linejoin:round;fill-rule:evenodd;"
d="M 46704,35005
46704,34494
47295,34494
47295,35005
46704,35005
Z" /> 
</g>
<g >
<path style="fill:#000000; fill-opacity:1.0; 
stroke:#000000; stroke-width:0; stroke-opacity:1; 
stroke-linecap:round; stroke-linejoin:round;fill-rule:evenodd;"
d="M 47112,31551
47112,30448
47506,30448
47506,31551
47112,31551
Z" /> 
<path style="fill:#000000; fill-opacity:1.0; 
stroke:#000000; stroke-width:0; stroke-opacity:1; 
stroke-linecap:round; stroke-linejoin:round;fill-rule:evenodd;"
d="M 48293,31551
48293,30448
48687,30448
48687,31551
48293,31551
Z" /> 
</g>
<g >
</g>
<g >
<path style="fill:#000000; fill-opacity:1.0; 
stroke:#000000; stroke-width:0; stroke-opacity:1; 
stroke-linecap:round; stroke-linejoin:round;fill-rule:evenodd;"
d="M 48850,42600
48850,43400
48250,43400
48250,42600
48850,42600
Z" /> 
<path style="fill:#000000; fill-opacity:1.0; 
stroke:#000000; stroke-width:0; stroke-opacity:1; 
stroke-linecap:round; stroke-linejoin:round;fill-rule:evenodd;"
d="M 47550,42600
47550,43400
46950,43400
46950,42600
47550,42600
Z" /> 
</g>
<g >
<path style="fill:#000000; fill-opacity:1.0; 
stroke:#000000; stroke-width:0; stroke-opacity:1; 
stroke-linecap:round; stroke-linejoin:round;fill-rule:evenodd;"
d="M 47500,32350
47500,33150
46900,33150
46900,32350
47500,32350
Z" /> 
<path style="fill:#000000; fill-opacity:1.0; 
stroke:#000000; stroke-width:0; stroke-opacity:1; 
stroke-linecap:round; stroke-linejoin:round;fill-rule:evenodd;"
d="M 48800,32350
48800,33150
48200,33150
48200,32350
48800,32350
Z" /> 
</g>
<g >
<circle cx="47026.1" cy="21986" r="577.697" /> 
</g>
<g style="fill:#000000; fill-opacity:1.0; 
stroke:#000000; stroke-width:39.3701; stroke-opacity:1; 
stroke-linecap:round; stroke-linejoin:round;">
</g>
<g style="fill:#000000; fill-opacity:1.0; 
stroke:#000000; stroke-width:0; stroke-opacity:1; 
stroke-linecap:round; stroke-linejoin:round;">
<circle cx="60763.7" cy="21986" r="577.697" /> 
</g>
<g style="fill:#000000; fill-opacity:1.0; 
stroke:#000000; stroke-width:39.3701; stroke-opacity:1; 
stroke-linecap:round; stroke-linejoin:round;">
</g>
<g style="fill:#000000; fill-opacity:1.0; 
stroke:#000000; stroke-width:0; stroke-opacity:1; 
stroke-linecap:round; stroke-linejoin:round;">
<circle cx="60763.7" cy="51471.7" r="577.697" /> 
</g>
<g style="fill:#000000; fill-opacity:1.0; 
stroke:#000000; stroke-width:39.3701; stroke-opacity:1; 
stroke-linecap:round; stroke-linejoin:round;">
</g>
<g style="fill:#000000; fill-opacity:1.0; 
stroke:#000000; stroke-width:0; stroke-opacity:1; 
stroke-linecap:round; stroke-linejoin:round;">
<circle cx="47026.1" cy="51471.7" r="577.697" /> 
</g>
<g style="fill:#000000; fill-opacity:1.0; 
stroke:#000000; stroke-width:39.3701; stroke-opacity:1; 
stroke-linecap:round; stroke-linejoin:round;">
</g>
<g >
</g>
<g style="fill:#000000; fill-opacity:1.0; 
stroke:#000000; stroke-width:0; stroke-opacity:1; 
stroke-linecap:round; stroke-linejoin:round;">
<circle cx="46400" cy="38750" r="125" /> 
</g>
<g style="fill:#000000; fill-opacity:1.0; 
stroke:#000000; stroke-width:39.3701; stroke-opacity:1; 
stroke-linecap:round; stroke-linejoin:round;">
</g>
<g style="fill:#000000; fill-opacity:1.0; 
stroke:#000000; stroke-width:0; stroke-opacity:1; 
stroke-linecap:round; stroke-linejoin:round;">
<circle cx="46400" cy="33400" r="125" /> 
</g>
<g style="fill:#000000; fill-opacity:1.0; 
stroke:#000000; stroke-width:39.3701; stroke-opacity:1; 
stroke-linecap:round; stroke-linejoin:round;">
</g>
<g style="fill:#000000; fill-opacity:1.0; 
stroke:#000000; stroke-width:0; stroke-opacity:1; 
stroke-linecap:round; stroke-linejoin:round;">
<circle cx="49100" cy="42150" r="125" /> 
</g>
<g style="fill:#000000; fill-opacity:1.0; 
stroke:#000000; stroke-width:39.3701; stroke-opacity:1; 
stroke-linecap:round; stroke-linejoin:round;">
</g>
<g style="fill:#000000; fill-opacity:1.0; 
stroke:#000000; stroke-width:0; stroke-opacity:1; 
stroke-linecap:round; stroke-linejoin:round;">
<circle cx="46700" cy="38300" r="125" /> 
</g>
<g style="fill:#000000; fill-opacity:1.0; 
stroke:#000000; stroke-width:39.3701; stroke-opacity:1; 
stroke-linecap:round; stroke-linejoin:round;">
</g>
<g style="fill:#000000; fill-opacity:1.0; 
stroke:#000000; stroke-width:0; stroke-opacity:1; 
stroke-linecap:round; stroke-linejoin:round;">
<circle cx="46950" cy="38700" r="125" /> 
</g>
<g style="fill:#000000; fill-opacity:1.0; 
stroke:#000000; stroke-width:39.3701; stroke-opacity:1; 
stroke-linecap:round; stroke-linejoin:round;">
</g>
<g style="fill:#000000; fill-opacity:1.0; 
stroke:#000000; stroke-width:0; stroke-opacity:1; 
stroke-linecap:round; stroke-linejoin:round;">
<circle cx="49000" cy="40450" r="125" /> 
</g>
<g style="fill:#000000; fill-opacity:1.0; 
stroke:#000000; stroke-width:39.3701; stroke-opacity:1; 
stroke-linecap:round; stroke-linejoin:round;">
</g>
<g >
</g>
<g style="fill:#000000; fill-opacity:1.0; 
stroke:#000000; stroke-width:300; stroke-opacity:1; 
stroke-linecap:round; stroke-linejoin:round;">
</g>
<g style="fill:#000000; fill-opacity:0.0; 
stroke:#000000; stroke-width:300; stroke-opacity:1; 
stroke-linecap:round; stroke-linejoin:round;">
<path d="M48500 31009
L48490 31000
" />
<path d="M48500 32750
L48500 31009
" />
<path d="M47000 34000
L47550 34000
" />
<path d="M47550 34000
L47850 33700
" />
<path d="M47850 33700
L47850 32900
" />
<path d="M48000 32750
L48500 32750
" />
<path d="M47850 32900
L48000 32750
" />
<path d="M53919 50818
L52718 50818
" />
<path d="M52718 50818
L51500 49600
" />
<path d="M51500 49600
L51500 32150
" />
<path d="M50350 31000
L48490 31000
" />
<path d="M51500 32150
L50350 31000
" />
</g>
<g style="fill:#000000; fill-opacity:0.0; 
stroke:#000000; stroke-width:118.11; stroke-opacity:1; 
stroke-linecap:round; stroke-linejoin:round;">
<path d="M48274 38606
L48593 38606
" />
<path d="M48593 38606
L48750 38450
" />
<path d="M48750 38450
L48750 38100
" />
<path d="M48750 38100
L48500 37850
" />
</g>
<g style="fill:#000000; fill-opacity:0.0; 
stroke:#000000; stroke-width:300; stroke-opacity:1; 
stroke-linecap:round; stroke-linejoin:round;">
<path d="M47000 34001
L46498 34001
" />
<path d="M46350 34150
L46350 37400
" />
<path d="M46498 34001
L46350 34150
" />
<path d="M46350 37500
L46700 37850
" />
<path d="M46350 37400
L46350 37500
" />
<path d="M46351 36001
L46350 36000
" />
<path d="M47000 36001
L46351 36001
" />
</g>
<g style="fill:#000000; fill-opacity:0.0; 
stroke:#000000; stroke-width:118.11; stroke-opacity:1; 
stroke-linecap:round; stroke-linejoin:round;">
<path d="M46350 37400
L46350 36000
" />
<path d="M46350 36000
L46350 35950
" />
</g>
<g style="fill:#000000; fill-opacity:0.0; 
stroke:#000000; stroke-width:300; stroke-opacity:1; 
stroke-linecap:round; stroke-linejoin:round;">
<path d="M46700 37850
L48400 37850
" />
</g>
<g style="fill:#000000; fill-opacity:0.0; 
stroke:#000000; stroke-width:118.11; stroke-opacity:1; 
stroke-linecap:round; stroke-linejoin:round;">
<path d="M48500 37850
L48400 37850
" />
</g>
<g style="fill:#000000; fill-opacity:0.0; 
stroke:#000000; stroke-width:300; stroke-opacity:1; 
stroke-linecap:round; stroke-linejoin:round;">
<path d="M48000 28000
L48650 27350
" />
<path d="M47750 28000
L48000 28000
" />
<path d="M48000 48000
L48650 47350
" />
<path d="M47750 48000
L48000 48000
" />
<path d="M47250 43000
L47250 44550
" />
<path d="M47250 44550
L46650 45150
" />
<path d="M46650 45150
L46650 47750
" />
<path d="M46900 48000
L47750 48000
" />
<path d="M46650 47750
L46900 48000
" />
<path d="M47250 43000
L47250 42350
" />
<path d="M47250 42350
L47600 42000
" />
<path d="M47600 42000
L47950 42000
" />
<path d="M48250 41700
L48250 41250
" />
<path d="M47950 42000
L48250 41700
" />
<path d="M47200 32750
L47200 32100
" />
<path d="M47200 32100
L47400 31900
" />
<path d="M47400 31900
L47700 31900
" />
<path d="M47700 31900
L47900 31700
" />
<path d="M47900 31700
L47900 29150
" />
<path d="M47750 29000
L47750 28000
" />
<path d="M47900 29150
L47750 29000
" />
</g>
<g style="fill:#000000; fill-opacity:0.0; 
stroke:#000000; stroke-width:118.11; stroke-opacity:1; 
stroke-linecap:round; stroke-linejoin:round;">
<path d="M47525 39000
L47900 39000
" />
<path d="M47900 39000
L47900 39800
" />
<path d="M48250 40150
L48250 41700
" />
<path d="M47900 39800
L48250 40150
" />
<path d="M47525 39000
L46650 39000
" />
<path d="M46650 39000
L46400 38750
" />
<path d="M46400 33400
L46400 32950
" />
<path d="M46600 32750
L47200 32750
" />
<path d="M46400 32950
L46600 32750
" />
</g>
<g style="fill:#000000; fill-opacity:0.0; 
stroke:#000000; stroke-width:300; stroke-opacity:1; 
stroke-linecap:round; stroke-linejoin:round;">
<path d="M48100 46000
L48650 46550
" />
<path d="M47750 46000
L48100 46000
" />
<path d="M47750 46000
L47750 45400
" />
<path d="M48550 44600
L48550 43000
" />
<path d="M47750 45400
L48550 44600
" />
</g>
<g style="fill:#000000; fill-opacity:0.0; 
stroke:#000000; stroke-width:118.11; stroke-opacity:1; 
stroke-linecap:round; stroke-linejoin:round;">
<path d="M48550 43000
L48550 42350
" />
<path d="M48550 42350
L48750 42150
" />
<path d="M48750 42150
L49100 42150
" />
<path d="M46700 38300
L46800 38300
" />
<path d="M47525 38606
L47256 38606
" />
<path d="M46950 38300
L46700 38300
" />
<path d="M47256 38606
L46950 38300
" />
<path d="M48274 39000
L48750 39000
" />
<path d="M48750 39000
L49050 38700
" />
<path d="M49050 38700
L49050 36200
" />
<path d="M48937 36087
L48500 36087
" />
<path d="M49050 36200
L48937 36087
" />
<path d="M48274 39196
L48853 39196
" />
<path d="M48853 39196
L49250 38800
" />
<path d="M49250 38800
L49250 34300
" />
<path d="M49037 34087
L48500 34087
" />
<path d="M49250 34300
L49037 34087
" />
<path d="M48656 39393
L48853 39196
" />
<path d="M48274 39393
L48656 39393
" />
</g>
<g style="fill:#000000; fill-opacity:0.0; 
stroke:#000000; stroke-width:300; stroke-opacity:1; 
stroke-linecap:round; stroke-linejoin:round;">
<path d="M47000 34750
L47650 34750
" />
<path d="M47813 34913
L48500 34913
" />
<path d="M47650 34750
L47813 34913
" />
</g>
<g style="fill:#000000; fill-opacity:0.0; 
stroke:#000000; stroke-width:118.11; stroke-opacity:1; 
stroke-linecap:round; stroke-linejoin:round;">
<path d="M47525 38803
L47053 38803
" />
<path d="M47053 38803
L46950 38700
" />
<path d="M49000 41248
L48998 41250
" />
<path d="M49000 40450
L49000 41248
" />
<path d="M47398 41250
L47398 40748
" />
<path d="M47398 40748
L46950 40300
" />
<path d="M46950 40300
L46950 39600
" />
<path d="M47156 39393
L47525 39393
" />
<path d="M46950 39600
L47156 39393
" />
<path d="M47525 39196
L47053 39196
" />
<path d="M46650 39600
L46650 41250
" />
<path d="M47053 39196
L46650 39600
" />
</g>
<g style="fill:#000000; fill-opacity:0.0; 
stroke:#000000; stroke-width:300; stroke-opacity:1; 
stroke-linecap:round; stroke-linejoin:round;">
<path d="M47000 36750
L47650 36750
" />
<path d="M47813 36913
L48500 36913
" />
<path d="M47650 36750
L47813 36913
" />
<path d="M48100 26000
L48650 26550
" />
<path d="M47750 26000
L48100 26000
" />
<path d="M47309 31000
L47309 29809
" />
<path d="M47309 29809
L46700 29200
" />
<path d="M46700 29200
L46700 26600
" />
<path d="M47300 26000
L47750 26000
" />
<path d="M46700 26600
L47300 26000
" />
</g>
<g >
</g>
<g style="fill:#000000; fill-opacity:1.0; 
stroke:#000000; stroke-width:100; stroke-opacity:1; 
stroke-linecap:round; stroke-linejoin:round;">
<path style="fill:#000000; fill-opacity:1.0; 
stroke:#000000; stroke-width:100; stroke-opacity:1; 
stroke-linecap:round; stroke-linejoin:round;fill-rule:evenodd;"
d="M 60236,21343
60120,21458
60030,21593
59967,21744
59936,21904
59936,22067
59967,22227
60030,22378
60120,22513
60236,22628
60371,22719
60522,22781
60682,22813
60845,22813
61005,22781
61155,22719
61291,22628
61406,22513
61471,22416
61471,35770
61425,35740
61425,35740
61423,35739
61349,35693
61349,35693
61347,35692
61261,35638
61261,35638
61260,35638
61219,35613
61219,35613
61218,35612
60977,35465
60977,35465
60977,35465
60763,35334
60763,35334
60763,35334
60575,35219
60575,35219
60574,35219
60411,35120
60411,35120
60410,35120
60270,35035
60270,35035
60269,35034
60151,34963
60151,34963
60150,34963
60053,34905
60053,34905
60051,34904
59973,34858
59973,34858
59971,34857
59911,34823
59911,34822
59911,34822
59907,34820
59865,34797
59862,34796
59859,34794
59856,34792
59829,34779
59815,34773
59801,34767
59797,34766
59785,34761
59768,34757
59766,34757
59762,34756
59744,34751
59741,34751
59737,34750
59721,34750
59717,34749
59712,34749
59695,34748
59692,34749
59688,34748
59674,34751
59668,34751
59660,34753
59647,34755
59643,34756
59639,34756
59628,34760
59620,34762
59611,34767
59600,34770
59597,34772
59596,34772
59594,34773
59593,34774
59585,34779
59575,34783
59565,34791
59553,34797
59545,34805
59536,34812
59527,34821
59517,34830
59510,34839
59502,34848
59495,34859
59487,34870
59482,34880
59476,34890
59472,34902
59466,34914
59463,34925
59459,34936
59457,34949
59454,34962
59453,34973
59451,34984
59452,34997
59451,35011
59452,35022
59453,35033
59453,35037
59456,35056
59458,35064
59459,35073
59460,35076
59471,35123
59471,35124
59471,35125
59472,35128
59489,35198
59489,35198
59490,35201
59494,35217
59393,35147
59393,35147
59347,35115
59347,35115
59347,35115
59211,35021
59211,35021
59211,35021
59083,34932
59083,34932
59083,34932
58966,34851
58966,34851
58966,34851
58862,34780
58862,34780
58862,34779
58775,34720
58775,34720
58774,34719
58706,34673
58705,34672
58704,34672
58657,34640
58657,34640
58656,34639
58653,34637
58630,34622
58623,34619
58619,34616
58615,34614
58610,34611
58607,34609
58605,34608
58595,34604
58586,34600
58582,34598
58575,34595
58567,34593
58559,34590
58544,34588
58539,34586
58537,34586
58527,34583
58519,34583
58511,34582
58494,34582
58478,34581
58470,34582
58462,34583
58446,34586
58429,34589
58422,34591
58414,34593
58399,34600
58383,34605
58376,34609
58369,34613
58355,34622
58341,34631
58335,34636
58328,34641
58317,34653
58304,34664
58300,34670
58294,34676
58285,34690
58275,34703
58272,34710
58267,34717
58261,34733
58254,34748
58252,34755
58249,34763
58246,34779
58242,34795
58241,34799
58239,34815
58239,34825
58237,34834
58237,34838
58235,34883
58235,34884
58235,34884
58235,34888
58233,34958
58233,34958
58233,34960
58232,35050
58232,35050
58232,35052
58231,35159
58231,35159
58231,35160
58231,35279
58231,35279
58231,35279
58231,35289
58231,35289
58231,35289
58231,35745
58233,35763
58233,35780
58235,35787
58236,35794
58241,35811
58245,35828
58248,35835
58250,35841
58258,35857
58265,35873
58270,35878
58273,35885
58284,35898
58294,35913
58300,35917
58304,35923
58318,35934
58330,35946
58336,35950
58342,35954
58357,35963
58372,35972
58379,35974
58385,35978
58402,35983
58418,35989
58422,35990
59355,36223
59355,36223
59355,36223
59526,36266
59526,36266
59526,36266
59687,36305
59687,36305
59687,36305
59835,36341
59835,36341
59835,36341
59967,36373
59967,36373
59968,36373
60081,36400
60081,36400
60083,36400
60174,36421
60174,36421
60177,36422
60244,36437
60245,36437
60247,36437
60250,36438
60290,36446
60304,36447
60317,36450
60321,36450
60331,36451
60339,36450
60339,36451
60340,36450
60355,36450
60378,36450
60379,36449
60381,36449
60403,36444
60426,36439
60427,36439
60429,36439
60450,36429
60471,36420
60472,36419
60474,36419
60493,36405
60512,36392
60513,36391
60514,36390
60530,36373
60546,36357
60547,36356
60548,36355
60560,36335
60573,36316
60574,36314
60574,36313
60583,36292
60591,36270
60592,36269
60592,36268
60596,36245
60600,36222
60600,36220
60601,36219
60600,36196
60600,36172
60600,36171
60600,36170
60595,36147
60590,36124
60589,36122
60589,36122
60589,36122
60589,36121
60583,36102
60581,36098
60580,36094
60579,36091
60562,36046
60562,36046
60561,36044
60535,35978
60535,35978
60534,35976
60531,35969
60652,36015
60828,36083
61019,36156
61019,36156
61222,36234
61271,36253
61279,36255
61286,36258
61289,36259
61317,36267
61339,36272
61361,36276
61363,36276
61366,36277
61388,36277
61410,36277
61414,36277
61423,36276
61428,36275
61433,36275
61452,36271
61471,36267
61471,51041
61406,50944
61291,50828
61155,50738
61005,50675
60845,50643
60682,50643
60522,50675
60371,50738
60236,50828
60120,50944
60030,51079
59967,51230
59936,51390
59936,51553
59967,51713
60030,51863
60120,51999
60236,52114
60333,52179
47456,52179
47553,52114
47669,51999
47759,51863
47821,51713
47853,51553
47853,51390
47821,51230
47759,51079
47669,50944
47553,50828
47418,50738
47267,50675
47107,50643
46944,50643
46784,50675
46634,50738
46498,50828
46383,50944
46318,51041
46318,48492
47006,48492
47011,48541
47025,48588
47049,48631
47080,48669
47118,48700
47161,48724
47208,48738
47258,48743
47637,48742
47700,48679
47700,48050
47800,48050
47800,48679
47862,48742
48242,48743
48291,48738
48338,48724
48381,48700
48419,48669
48450,48631
48474,48588
48488,48541
48493,48492
48492,48112
48429,48050
47800,48050
47700,48050
47070,48050
47008,48112
47006,48492
46318,48492
46318,47508
47006,47508
47008,47887
47070,47950
47700,47950
47700,47320
47637,47258
47258,47256
47208,47261
47161,47275
47118,47299
47080,47330
47049,47368
47025,47411
47011,47458
47006,47508
46318,47508
46318,45926
47008,45926
47008,46073
47036,46216
47092,46351
47173,46472
47277,46576
47398,46657
47533,46713
47676,46742
47823,46742
47966,46713
48058,46675
48068,46726
48114,46836
48180,46935
48193,46948
48185,46956
48231,47001
48130,47034
48079,47142
48049,47257
48049,47257
47862,47258
47800,47320
47800,47950
48429,47950
48455,47923
48557,47950
48676,47956
48794,47939
48906,47900
48965,47869
48998,47768
48650,47420
48644,47426
48573,47355
48579,47350
48573,47344
48644,47273
48650,47279
48655,47273
48726,47344
48720,47350
49068,47698
49169,47665
49220,47557
49250,47442
49256,47323
49239,47205
49200,47093
49169,47034
49068,47001
49114,46956
49106,46948
49119,46935
49185,46836
49231,46726
49254,46609
49254,46490
49231,46373
49185,46263
49119,46164
49035,46080
48936,46014
48826,45968
48709,45945
48611,45945
48467,45801
48463,45783
48407,45648
48326,45527
48257,45458
48818,44896
48834,44884
48884,44823
48921,44753
48944,44678
48950,44619
48950,44619
48951,44600
48950,44580
48950,43630
48989,43608
49027,43577
49058,43539
49082,43496
49096,43449
49101,43400
49101,42600
49096,42550
49088,42525
49136,42525
49209,42510
49277,42482
49339,42441
49391,42389
49432,42327
49460,42259
49475,42186
49475,42113
49460,42040
49432,41972
49391,41910
49339,41858
49277,41817
49226,41796
49253,41796
49302,41791
49350,41777
49393,41754
49431,41722
49462,41684
49486,41641
49500,41594
49505,41545
49505,40954
49500,40905
49486,40858
49462,40815
49431,40777
49393,40745
49350,40722
49309,40710
49309,40662
49332,40627
49360,40559
49375,40486
49375,40413
49360,40340
49332,40272
49291,40210
49239,40158
49177,40117
49109,40089
49036,40075
48963,40075
48890,40089
48822,40117
48760,40158
48708,40210
48667,40272
48639,40340
48625,40413
48625,40486
48639,40559
48667,40627
48690,40662
48690,40709
48645,40722
48624,40734
48602,40722
48554,40708
48505,40703
48362,40704
48300,40767
48300,41200
48307,41200
48307,41300
48300,41300
48300,41732
48362,41795
48505,41796
48554,41791
48602,41777
48624,41765
48645,41777
48693,41791
48742,41796
48973,41796
48922,41817
48887,41840
48765,41840
48749,41839
48734,41840
48734,41840
48695,41844
48689,41845
48675,41849
48631,41863
48577,41891
48530,41930
48520,41942
48342,42120
48330,42130
48320,42142
48320,42142
48314,42150
48291,42177
48276,42206
48263,42231
48245,42289
48239,42349
48200,42353
48153,42367
48110,42391
48072,42422
48041,42460
48017,42503
48003,42550
47998,42600
47998,43400
48003,43449
48017,43496
48041,43539
48072,43577
48110,43608
48150,43630
48150,44434
47481,45103
47465,45115
47415,45176
47378,45246
47355,45321
47350,45374
47277,45423
47173,45527
47092,45648
47036,45783
47008,45926
46318,45926
46318,43400
46698,43400
46703,43449
46717,43496
46741,43539
46772,43577
46810,43608
46853,43632
46900,43646
46950,43651
47137,43650
47200,43587
47200,43050
47300,43050
47300,43587
47362,43650
47550,43651
47599,43646
47646,43632
47689,43608
47727,43577
47758,43539
47782,43496
47796,43449
47801,43400
47800,43112
47737,43050
47300,43050
47200,43050
46762,43050
46700,43112
46698,43400
46318,43400
46318,42600
46698,42600
46700,42887
46762,42950
47200,42950
47200,42412
47300,42412
47300,42950
47737,42950
47800,42887
47801,42600
47796,42550
47782,42503
47758,42460
47727,42422
47689,42391
47646,42367
47599,42353
47550,42348
47362,42350
47300,42412
47200,42412
47137,42350
46950,42348
46900,42353
46853,42367
46810,42391
46772,42422
46741,42460
46717,42503
46703,42550
46698,42600
46318,42600
46318,41783
46345,41791
46394,41796
46905,41796
46954,41791
47002,41777
47024,41765
47045,41777
47093,41791
47142,41796
47653,41796
47702,41791
47750,41777
47793,41754
47824,41729
47854,41754
47897,41777
47945,41791
47994,41796
48137,41795
48200,41732
48200,41300
48192,41300
48192,41200
48200,41200
48200,40767
48137,40704
47994,40703
47945,40708
47897,40722
47854,40745
47824,40770
47793,40745
47750,40722
47704,40708
47702,40687
47684,40629
47656,40575
47617,40528
47605,40518
47259,40171
47259,39728
47284,39702
47541,39702
47586,39698
47600,39694
47619,39694
47638,39704
47685,39718
47734,39723
47787,39722
47850,39659
47850,39551
47856,39539
47870,39491
47875,39442
47875,39344
47870,39295
47870,39295
47870,39295
47875,39246
47875,39147
47870,39098
47870,39096
47874,39062
47848,39036
47842,39024
47842,38975
47848,38963
47874,38937
47870,38903
47870,38901
47875,38852
47875,38753
47870,38704
47870,38704
47870,38704
47875,38655
47875,38557
47870,38508
47856,38460
47850,38448
47850,38340
47787,38277
47734,38276
47685,38281
47638,38295
47619,38305
47600,38305
47586,38301
47541,38297
47384,38297
47337,38250
48419,38250
48440,38247
48440,38297
48258,38297
48213,38301
48199,38305
48180,38305
48161,38295
48114,38281
48065,38276
48012,38277
47950,38340
47950,38448
47943,38460
47929,38508
47924,38557
47924,38655
47929,38704
47929,38704
47929,38704
47924,38753
47924,38852
47929,38901
47929,38901
47929,38901
47924,38950
47924,39049
47929,39098
47929,39098
47929,39098
47924,39147
47924,39246
47929,39295
47929,39295
47929,39295
47924,39344
47924,39442
47929,39491
47943,39539
47950,39551
47950,39659
48012,39722
48065,39723
48114,39718
48161,39704
48180,39694
48199,39694
48213,39698
48258,39702
48641,39702
48656,39704
48671,39702
48671,39702
48716,39698
48775,39680
48828,39651
48875,39613
48885,39601
49060,39426
49072,39416
49082,39404
49457,39029
49469,39019
49481,39004
49494,38989
49508,38972
49536,38918
49553,38864
49554,38860
49555,38847
49559,38815
49559,38815
49560,38800
49559,38784
49559,34315
49560,34300
49559,34284
49559,34284
49555,34247
49554,34239
49536,34181
49508,34127
49469,34080
49457,34070
49266,33879
49256,33867
49209,33828
49155,33800
49097,33782
49052,33777
49052,33777
49037,33776
49021,33777
48975,33777
48968,33754
48944,33711
48913,33673
48875,33642
48832,33618
48785,33604
48736,33599
48264,33599
48250,33601
48250,33401
48800,33401
48849,33396
48896,33382
48939,33358
48977,33327
49008,33289
49032,33246
49046,33199
49051,33150
49051,32350
49046,32300
49032,32253
49008,32210
48977,32172
48939,32141
48900,32119
48900,31683
48919,31647
48933,31600
48938,31551
48938,31400
50184,31400
51100,32315
51100,49580
51098,49600
51100,49619
51105,49678
51128,49753
51165,49823
51215,49884
51231,49896
52422,51087
52434,51103
52495,51153
52565,51190
52640,51213
52699,51218
52699,51218
52718,51220
52738,51218
53078,51218
53082,51261
53096,51308
53119,51352
53151,51390
53189,51421
53232,51444
53279,51458
53328,51463
54509,51463
54558,51458
54605,51444
54649,51421
54687,51390
54718,51352
54741,51308
54756,51261
54761,51212
54761,50425
54756,50376
54741,50329
54718,50285
54687,50247
54649,50216
54605,50193
54558,50178
54509,50173
53328,50173
53279,50178
53232,50193
53189,50216
53151,50247
53119,50285
53096,50329
53082,50376
53078,50418
52884,50418
51900,49434
51900,47037
53078,47037
53078,47907
53090,48030
53138,48189
53217,48335
53322,48463
53450,48568
53596,48646
53754,48694
53919,48710
54084,48694
54242,48646
54388,48568
54516,48463
54621,48335
54699,48189
54747,48030
54759,47907
54759,47037
54747,46913
54699,46755
54621,46609
54516,46481
54388,46376
54242,46298
54084,46250
53919,46234
53754,46250
53596,46298
53450,46376
53322,46481
53217,46609
53138,46755
53090,46913
53078,47037
51900,47037
51900,32169
51901,32150
51894,32071
51871,31996
51834,31926
51784,31865
51768,31853
50646,30731
50634,30715
50573,30665
50503,30628
50428,30605
50369,30600
50350,30598
50330,30600
48938,30600
48938,30448
48933,30399
48919,30352
48896,30309
48865,30271
48826,30239
48783,30216
48736,30202
48687,30197
48293,30197
48244,30202
48197,30216
48154,30239
48116,30271
48084,30309
48061,30352
48047,30399
48042,30448
48042,31551
48047,31600
48061,31647
48084,31690
48100,31709
48100,32119
48060,32141
48022,32172
47991,32210
47967,32253
47953,32300
47948,32350
47948,32353
47929,32355
47921,32355
47904,32361
47846,32378
47776,32415
47750,32437
47751,32350
47746,32300
47732,32253
47708,32210
47677,32172
47639,32141
47596,32117
47549,32103
47500,32098
47312,32100
47250,32162
47250,32700
47257,32700
47257,32800
47250,32800
47250,33337
47312,33400
47450,33400
47450,33534
47441,33542
47434,33537
47391,33513
47344,33499
47295,33494
46704,33494
46655,33499
46608,33513
46565,33537
46527,33568
46500,33600
46498,33600
46478,33601
46478,33601
46419,33607
46344,33630
46318,33644
46318,33150
46648,33150
46653,33199
46667,33246
46691,33289
46722,33327
46760,33358
46803,33382
46850,33396
46900,33401
47087,33400
47150,33337
47150,32800
46712,32800
46650,32862
46648,33150
46318,33150
46318,32350
46648,32350
46650,32637
46712,32700
47150,32700
47150,32162
47087,32100
46900,32098
46850,32103
46803,32117
46760,32141
46722,32172
46691,32210
46667,32253
46653,32300
46648,32350
46318,32350
46318,29319
46328,29353
46365,29423
46415,29484
46431,29496
46909,29975
46909,30302
46903,30309
46880,30352
46866,30399
46861,30448
46861,31551
46866,31600
46880,31647
46903,31690
46934,31728
46973,31760
47016,31783
47063,31797
47112,31802
47506,31802
47555,31797
47602,31783
47645,31760
47683,31728
47715,31690
47738,31647
47752,31600
47757,31551
47757,30448
47752,30399
47738,30352
47715,30309
47709,30302
47709,29829
47711,29809
47703,29731
47680,29655
47643,29586
47606,29540
47593,29525
47578,29512
47100,29034
47100,28685
47118,28700
47161,28724
47208,28738
47258,28743
47637,28742
47700,28679
47700,28050
47800,28050
47800,28679
47862,28742
48242,28743
48291,28738
48338,28724
48381,28700
48419,28669
48450,28631
48474,28588
48488,28541
48493,28492
48492,28112
48429,28050
47800,28050
47700,28050
47692,28050
47692,27950
47700,27950
47700,27320
47637,27258
47258,27256
47208,27261
47161,27275
47118,27299
47100,27314
47100,26765
47284,26581
47398,26657
47533,26713
47676,26742
47823,26742
47966,26713
48058,26675
48068,26726
48114,26836
48180,26935
48193,26948
48185,26956
48231,27001
48130,27034
48079,27142
48049,27257
48049,27257
47862,27258
47800,27320
47800,27950
48429,27950
48455,27923
48557,27950
48676,27956
48794,27939
48906,27900
48965,27869
48998,27768
48650,27420
48644,27426
48573,27355
48579,27350
48573,27344
48644,27273
48650,27279
48655,27273
48726,27344
48720,27350
49068,27698
49169,27665
49220,27557
49250,27442
49256,27323
49239,27205
49200,27093
49169,27034
49068,27001
49114,26956
49106,26948
49119,26935
49185,26836
49231,26726
49254,26609
49254,26490
49231,26373
49185,26263
49119,26164
49035,26080
48936,26014
48826,25968
48709,25945
48611,25945
48467,25801
48463,25783
48407,25648
48326,25527
48222,25423
48163,25383
53078,25383
53078,26253
53090,26377
53138,26535
53217,26681
53322,26809
53450,26914
53596,26992
53754,27040
53919,27057
54084,27040
54242,26992
54388,26914
54516,26809
54621,26681
54699,26535
54747,26377
54759,26253
54759,25383
54747,25260
54699,25101
54621,24955
54516,24827
54388,24722
54242,24644
54084,24596
53919,24580
53754,24596
53596,24644
53450,24722
53322,24827
53217,24955
53138,25101
53090,25260
53078,25383
48163,25383
48101,25342
47966,25286
47823,25258
47676,25258
47533,25286
47398,25342
47277,25423
47173,25527
47092,25648
47087,25659
47076,25665
47015,25715
47003,25731
46431,26303
46415,26315
46365,26376
46356,26394
46328,26446
46318,26480
46318,22416
46383,22513
46498,22628
46634,22719
46784,22781
46944,22813
47107,22813
47267,22781
47418,22719
47553,22628
47560,22622
53096,22622
53108,22672
53159,22788
53231,22892
53323,22979
53429,23048
53547,23094
53672,23116
53869,23116
53869,22522
53969,22522
53969,23116
54166,23116
54290,23094
54408,23048
54515,22979
54606,22892
54679,22788
54729,22672
54742,22622
54695,22522
53969,22522
53869,22522
53143,22522
53096,22622
47560,22622
47669,22513
47759,22378
47782,22322
53096,22322
53143,22422
53869,22422
53869,22414
53969,22414
53969,22422
54695,22422
54742,22322
54729,22272
54679,22156
54606,22052
54515,21965
54408,21896
54290,21850
54166,21828
53672,21828
53547,21850
53429,21896
53323,21965
53231,22052
53159,22156
53108,22272
53096,22322
47782,22322
47821,22227
47853,22067
47853,21904
47821,21744
47759,21593
47669,21458
47553,21343
47456,21278
60333,21278
60236,21343
Z" /> 
<path style="fill:#000000; fill-opacity:1.0; 
stroke:#000000; stroke-width:100; stroke-opacity:1; 
stroke-linecap:round; stroke-linejoin:round;fill-rule:evenodd;"
d="M 46383,38098
46367,38122
46339,38190
46325,38263
46325,38336
46339,38409
46367,38477
46408,38539
46460,38591
46522,38632
46576,38654
46575,38663
46575,38736
46589,38809
46617,38877
46658,38939
46710,38991
46772,39032
46778,39034
46442,39370
46430,39380
46391,39427
46363,39481
46345,39539
46340,39584
46340,39584
46339,39600
46340,39615
46340,40709
46318,40716
46318,38034
46383,38098
Z" /> 
</g>
</g> 
</svg>
