G04 #@! TF.GenerationSoftware,KiCad,Pcbnew,(5.1.0)-1*
G04 #@! TF.CreationDate,2020-11-16T17:57:16+00:00*
G04 #@! TF.ProjectId,SolarCharger2020,536f6c61-7243-4686-9172-676572323032,rev?*
G04 #@! TF.SameCoordinates,PX5d42830PY7b89fa0*
G04 #@! TF.FileFunction,Soldermask,Top*
G04 #@! TF.FilePolarity,Negative*
%FSLAX46Y46*%
G04 Gerber Fmt 4.6, Leading zero omitted, Abs format (unit mm)*
G04 Created by KiCad (PCBNEW (5.1.0)-1) date 2020-11-16 17:57:16*
%MOMM*%
%LPD*%
G04 APERTURE LIST*
%ADD10C,0.010000*%
%ADD11O,3.400000X5.400000*%
%ADD12R,3.400000X2.400000*%
%ADD13O,3.400000X2.400000*%
%ADD14C,2.200000*%
%ADD15C,2.899360*%
%ADD16R,2.899360X2.899360*%
%ADD17R,0.900000X0.650000*%
%ADD18R,1.240000X2.800000*%
%ADD19R,1.598880X1.598880*%
%ADD20R,1.700000X1.900000*%
%ADD21R,1.900000X1.700000*%
%ADD22R,1.400000X3.200000*%
%ADD23R,1.924000X2.432000*%
%ADD24C,3.334700*%
G04 APERTURE END LIST*
D10*
G36*
X50916417Y38696315D02*
G01*
X50987608Y38678110D01*
X51132560Y38641549D01*
X51342877Y38588734D01*
X51610161Y38521766D01*
X51926017Y38442747D01*
X52282047Y38353779D01*
X52669855Y38256963D01*
X53081044Y38154401D01*
X53213000Y38121506D01*
X53626611Y38018332D01*
X54016897Y37920822D01*
X54375850Y37830987D01*
X54695461Y37750839D01*
X54967722Y37682390D01*
X55184624Y37627650D01*
X55338159Y37588632D01*
X55420319Y37567347D01*
X55430681Y37564473D01*
X55464867Y37557678D01*
X55484985Y37567455D01*
X55488400Y37602416D01*
X55472479Y37671170D01*
X55434587Y37782328D01*
X55372089Y37944499D01*
X55282350Y38166295D01*
X55162737Y38456325D01*
X55143855Y38501906D01*
X55047182Y38737077D01*
X54963634Y38943928D01*
X54897965Y39110390D01*
X54854926Y39224394D01*
X54839269Y39273872D01*
X54839469Y39274914D01*
X54880160Y39262929D01*
X54990574Y39223752D01*
X55161505Y39160823D01*
X55383748Y39077586D01*
X55648097Y38977481D01*
X55945345Y38863950D01*
X56180285Y38773623D01*
X56635684Y38598208D01*
X57018128Y38451271D01*
X57333570Y38330600D01*
X57587967Y38233986D01*
X57787273Y38159219D01*
X57937441Y38104089D01*
X58044428Y38066385D01*
X58114186Y38043897D01*
X58152671Y38034416D01*
X58165838Y38035731D01*
X58166000Y38036589D01*
X58134702Y38070912D01*
X58070750Y38117129D01*
X57880621Y38237985D01*
X57645538Y38384609D01*
X57373059Y38552502D01*
X57070746Y38737164D01*
X56746156Y38934096D01*
X56406848Y39138798D01*
X56060382Y39346770D01*
X55714317Y39553514D01*
X55376212Y39754529D01*
X55053626Y39945316D01*
X54754118Y40121375D01*
X54485248Y40278207D01*
X54254574Y40411313D01*
X54069655Y40516192D01*
X53938052Y40588346D01*
X53867321Y40623275D01*
X53857118Y40625280D01*
X53864760Y40571211D01*
X53892665Y40447596D01*
X53937819Y40266296D01*
X53997211Y40039170D01*
X54067827Y39778078D01*
X54121701Y39583678D01*
X54198512Y39308692D01*
X54267128Y39062148D01*
X54324437Y38855304D01*
X54367325Y38699417D01*
X54392681Y38605745D01*
X54398334Y38583162D01*
X54364660Y38604253D01*
X54267956Y38669241D01*
X54114694Y38773676D01*
X53911349Y38913105D01*
X53664394Y39083078D01*
X53380304Y39279144D01*
X53065551Y39496853D01*
X52726610Y39731752D01*
X52603293Y39817324D01*
X52256460Y40057744D01*
X51930726Y40282901D01*
X51632684Y40488280D01*
X51368927Y40669371D01*
X51146048Y40821659D01*
X50970638Y40940633D01*
X50849291Y41021779D01*
X50788600Y41060586D01*
X50782959Y41063333D01*
X50776349Y41022803D01*
X50770384Y40908422D01*
X50765298Y40731006D01*
X50761328Y40501369D01*
X50758708Y40230327D01*
X50757674Y39928696D01*
X50757667Y39900798D01*
X50757667Y38738263D01*
X50916417Y38696315D01*
X50916417Y38696315D01*
G37*
X50916417Y38696315D02*
X50987608Y38678110D01*
X51132560Y38641549D01*
X51342877Y38588734D01*
X51610161Y38521766D01*
X51926017Y38442747D01*
X52282047Y38353779D01*
X52669855Y38256963D01*
X53081044Y38154401D01*
X53213000Y38121506D01*
X53626611Y38018332D01*
X54016897Y37920822D01*
X54375850Y37830987D01*
X54695461Y37750839D01*
X54967722Y37682390D01*
X55184624Y37627650D01*
X55338159Y37588632D01*
X55420319Y37567347D01*
X55430681Y37564473D01*
X55464867Y37557678D01*
X55484985Y37567455D01*
X55488400Y37602416D01*
X55472479Y37671170D01*
X55434587Y37782328D01*
X55372089Y37944499D01*
X55282350Y38166295D01*
X55162737Y38456325D01*
X55143855Y38501906D01*
X55047182Y38737077D01*
X54963634Y38943928D01*
X54897965Y39110390D01*
X54854926Y39224394D01*
X54839269Y39273872D01*
X54839469Y39274914D01*
X54880160Y39262929D01*
X54990574Y39223752D01*
X55161505Y39160823D01*
X55383748Y39077586D01*
X55648097Y38977481D01*
X55945345Y38863950D01*
X56180285Y38773623D01*
X56635684Y38598208D01*
X57018128Y38451271D01*
X57333570Y38330600D01*
X57587967Y38233986D01*
X57787273Y38159219D01*
X57937441Y38104089D01*
X58044428Y38066385D01*
X58114186Y38043897D01*
X58152671Y38034416D01*
X58165838Y38035731D01*
X58166000Y38036589D01*
X58134702Y38070912D01*
X58070750Y38117129D01*
X57880621Y38237985D01*
X57645538Y38384609D01*
X57373059Y38552502D01*
X57070746Y38737164D01*
X56746156Y38934096D01*
X56406848Y39138798D01*
X56060382Y39346770D01*
X55714317Y39553514D01*
X55376212Y39754529D01*
X55053626Y39945316D01*
X54754118Y40121375D01*
X54485248Y40278207D01*
X54254574Y40411313D01*
X54069655Y40516192D01*
X53938052Y40588346D01*
X53867321Y40623275D01*
X53857118Y40625280D01*
X53864760Y40571211D01*
X53892665Y40447596D01*
X53937819Y40266296D01*
X53997211Y40039170D01*
X54067827Y39778078D01*
X54121701Y39583678D01*
X54198512Y39308692D01*
X54267128Y39062148D01*
X54324437Y38855304D01*
X54367325Y38699417D01*
X54392681Y38605745D01*
X54398334Y38583162D01*
X54364660Y38604253D01*
X54267956Y38669241D01*
X54114694Y38773676D01*
X53911349Y38913105D01*
X53664394Y39083078D01*
X53380304Y39279144D01*
X53065551Y39496853D01*
X52726610Y39731752D01*
X52603293Y39817324D01*
X52256460Y40057744D01*
X51930726Y40282901D01*
X51632684Y40488280D01*
X51368927Y40669371D01*
X51146048Y40821659D01*
X50970638Y40940633D01*
X50849291Y41021779D01*
X50788600Y41060586D01*
X50782959Y41063333D01*
X50776349Y41022803D01*
X50770384Y40908422D01*
X50765298Y40731006D01*
X50761328Y40501369D01*
X50758708Y40230327D01*
X50757674Y39928696D01*
X50757667Y39900798D01*
X50757667Y38738263D01*
X50916417Y38696315D01*
D11*
X39165000Y63960000D03*
D12*
X39165000Y460000D03*
D13*
X39165000Y72460000D03*
D11*
X39165000Y8960000D03*
D14*
X25781000Y62103000D03*
X25781000Y60071000D03*
D15*
X23495000Y63500000D03*
D16*
X23495000Y58420000D03*
D14*
X25781000Y11303000D03*
X25781000Y9271000D03*
D15*
X23495000Y12700000D03*
D16*
X23495000Y7620000D03*
D17*
X24826000Y31480000D03*
X24826000Y30980000D03*
X24826000Y29480000D03*
X24826000Y29980000D03*
X24826000Y30480000D03*
X22926000Y29480000D03*
X22926000Y29980000D03*
X22926000Y31480000D03*
X22926000Y30980000D03*
D18*
X23876000Y30480000D03*
D17*
X22926000Y30480000D03*
D19*
X25400000Y35780980D03*
X25400000Y37879020D03*
X25400000Y42959020D03*
X25400000Y40860980D03*
D20*
X24765000Y24765000D03*
X26665000Y24765000D03*
X22601000Y24765000D03*
X20701000Y24765000D03*
D21*
X21590000Y36195000D03*
X21590000Y38095000D03*
X21590000Y43175000D03*
X21590000Y41275000D03*
D22*
X22376000Y50800000D03*
X25376000Y50800000D03*
D23*
X25527000Y20320000D03*
X22225000Y20320000D03*
X22098000Y46355000D03*
X25400000Y46355000D03*
D24*
X21656293Y73695520D03*
X56549919Y73695520D03*
X56549919Y-1198105D03*
X21656293Y-1198105D03*
M02*
