<?xml version="1.0" standalone="no"?>
 <!DOCTYPE svg PUBLIC "-//W3C//DTD SVG 1.1//EN" 
 "http://www.w3.org/Graphics/SVG/1.1/DTD/svg11.dtd"> 
<svg xmlns="http://www.w3.org/2000/svg" version="1.1" 
    width="29.7002cm" height="21.0007cm" viewBox="0 0 116930 82680 ">
<title>SVG Picture created as SolarCharger2020-Dwgs_User.svg date 2020/12/17 14:49:22 </title>
  <desc>Picture generated by PCBNEW </desc>
<g style="fill:#000000; fill-opacity:1;stroke:#000000; stroke-opacity:1;
stroke-linecap:round; stroke-linejoin:round; "
 transform="translate(0 0) scale(1 1)">
</g>
<g style="fill:#000000; fill-opacity:0.0; 
stroke:#000000; stroke-width:-0.000393701; stroke-opacity:1; 
stroke-linecap:round; stroke-linejoin:round;">
</g>
<g style="fill:#000000; fill-opacity:0.0; 
stroke:#000000; stroke-width:59.0551; stroke-opacity:1; 
stroke-linecap:round; stroke-linejoin:round;">
<path d="M63563 38342
L63563 38080
L63957 38248
" />
<path d="M63563 37742
L63563 37930
L63751 37949
L63732 37930
L63713 37892
L63713 37799
L63732 37761
L63751 37742
L63788 37724
L63882 37724
L63920 37742
L63938 37761
L63957 37799
L63957 37892
L63938 37930
L63920 37949
" />
<path d="M63920 37555
L63938 37536
L63957 37555
L63938 37574
L63920 37555
L63957 37555
" />
<path d="M63563 37292
L63563 37255
L63582 37217
L63601 37199
L63638 37180
L63713 37161
L63807 37161
L63882 37180
L63920 37199
L63938 37217
L63957 37255
L63957 37292
L63938 37330
L63920 37349
L63882 37367
L63807 37386
L63713 37386
L63638 37367
L63601 37349
L63582 37330
L63563 37292
" />
<path d="M63563 36917
L63563 36880
L63582 36842
L63601 36824
L63638 36805
L63713 36786
L63807 36786
L63882 36805
L63920 36824
L63938 36842
L63957 36880
L63957 36917
L63938 36955
L63920 36974
L63882 36992
L63807 37011
L63713 37011
L63638 36992
L63601 36974
L63582 36955
L63563 36917
" />
<path d="M63563 36542
L63563 36505
L63582 36467
L63601 36449
L63638 36430
L63713 36411
L63807 36411
L63882 36430
L63920 36449
L63938 36467
L63957 36505
L63957 36542
L63938 36580
L63920 36599
L63882 36617
L63807 36636
L63713 36636
L63638 36617
L63601 36599
L63582 36580
L63563 36542
" />
<path d="M63957 35943
L63695 35943
" />
<path d="M63732 35943
L63713 35924
L63695 35886
L63695 35830
L63713 35793
L63751 35774
L63957 35774
" />
<path d="M63751 35774
L63713 35755
L63695 35718
L63695 35661
L63713 35624
L63751 35605
L63957 35605
" />
<path d="M63957 35418
L63695 35418
" />
<path d="M63732 35418
L63713 35399
L63695 35361
L63695 35305
L63713 35268
L63751 35249
L63957 35249
" />
<path d="M63751 35249
L63713 35230
L63695 35193
L63695 35136
L63713 35099
L63751 35080
L63957 35080
" />
<path d="M63267 51456
L63267 21929
" />
<path d="M60905 51456
L63498 51456
" />
<path d="M60905 21929
L63498 21929
" />
<path d="M63267 21929
L63498 22372
" />
<path d="M63267 21929
L63036 22372
" />
<path d="M63267 51456
L63498 51013
" />
<path d="M63267 51456
L63036 51013
" />
<path d="M52316 54841
L52560 54842
L52428 54992
L52485 54992
L52522 55011
L52541 55029
L52559 55067
L52559 55161
L52540 55198
L52522 55217
L52484 55236
L52371 55235
L52334 55216
L52315 55198
" />
<path d="M52916 54843
L52729 54843
L52710 55030
L52728 55011
L52766 54993
L52860 54993
L52897 55012
L52916 55031
L52934 55068
L52934 55162
L52915 55199
L52896 55218
L52859 55237
L52765 55236
L52728 55217
L52709 55199
" />
<path d="M53103 55200
L53121 55219
L53103 55237
L53084 55219
L53103 55200
L53103 55237
" />
<path d="M53366 54844
L53404 54844
L53441 54863
L53460 54882
L53478 54920
L53497 54995
L53497 55088
L53478 55163
L53459 55201
L53440 55220
L53403 55238
L53365 55238
L53328 55219
L53309 55200
L53290 55163
L53272 55088
L53272 54994
L53291 54919
L53310 54882
L53329 54863
L53366 54844
" />
<path d="M53741 54845
L53779 54846
L53816 54864
L53835 54883
L53853 54921
L53872 54996
L53872 55090
L53853 55164
L53834 55202
L53815 55221
L53778 55239
L53740 55239
L53703 55220
L53684 55201
L53665 55164
L53647 55089
L53647 54995
L53666 54920
L53685 54883
L53704 54864
L53741 54845
" />
<path d="M54116 54847
L54154 54847
L54191 54865
L54210 54884
L54228 54922
L54247 54997
L54247 55091
L54228 55166
L54209 55203
L54190 55222
L54152 55240
L54115 55240
L54078 55221
L54059 55203
L54040 55165
L54022 55090
L54022 54996
L54041 54921
L54060 54884
L54079 54865
L54116 54847
" />
<path d="M54715 55242
L54716 54979
" />
<path d="M54716 55017
L54734 54998
L54772 54980
L54828 54980
L54866 54999
L54884 55036
L54884 55242
" />
<path d="M54884 55036
L54903 54999
L54941 54980
L54997 54980
L55034 54999
L55053 55037
L55052 55243
" />
<path d="M55240 55243
L55241 54981
" />
<path d="M55240 55018
L55259 55000
L55297 54981
L55353 54981
L55391 55000
L55409 55038
L55409 55244
" />
<path d="M55409 55038
L55428 55000
L55466 54982
L55522 54982
L55559 55001
L55578 55038
L55577 55244
" />
<path d="M47077 54530
L60857 54570
" />
<path d="M47086 51417
L47077 54761
" />
<path d="M60866 51456
L60856 54800
" />
<path d="M60857 54570
L60413 54799
" />
<path d="M60857 54570
L60414 54337
" />
<path d="M47077 54530
L47520 54762
" />
<path d="M47077 54530
L47521 54301
" />
<g >
</g>
<g >
</g>
<g >
</g>
<g >
</g>
<g >
</g>
<g >
</g>
<g >
</g>
<g >
</g>
<g >
</g>
<g >
</g>
<g >
</g>
<g >
</g>
<g >
</g>
<g >
</g>
<g >
</g>
<g >
</g>
<g >
</g>
</g> 
</svg>
