G04 #@! TF.GenerationSoftware,KiCad,Pcbnew,(5.1.0)-1*
G04 #@! TF.CreationDate,2020-11-16T17:57:15+00:00*
G04 #@! TF.ProjectId,SolarCharger2020,536f6c61-7243-4686-9172-676572323032,rev?*
G04 #@! TF.SameCoordinates,PX5d42830PY7b89fa0*
G04 #@! TF.FileFunction,Copper,L2,Bot*
G04 #@! TF.FilePolarity,Positive*
%FSLAX46Y46*%
G04 Gerber Fmt 4.6, Leading zero omitted, Abs format (unit mm)*
G04 Created by KiCad (PCBNEW (5.1.0)-1) date 2020-11-16 17:57:15*
%MOMM*%
%LPD*%
G04 APERTURE LIST*
%ADD10C,0.600000*%
%ADD11R,3.000000X2.000000*%
%ADD12O,3.000000X2.000000*%
%ADD13C,1.800000*%
%ADD14C,2.499360*%
%ADD15R,2.499360X2.499360*%
%ADD16C,2.934700*%
%ADD17C,0.635000*%
%ADD18C,0.300000*%
%ADD19C,0.762000*%
%ADD20C,0.254000*%
G04 APERTURE END LIST*
D10*
X35822142Y52274143D02*
X35822142Y50417000D01*
X36965000Y51417000D01*
X36965000Y50988429D01*
X37107857Y50702715D01*
X37250714Y50559858D01*
X37536428Y50417000D01*
X38250714Y50417000D01*
X38536428Y50559858D01*
X38679285Y50702715D01*
X38822142Y50988429D01*
X38822142Y51845572D01*
X38679285Y52131286D01*
X38536428Y52274143D01*
X38822142Y47559858D02*
X38822142Y49274143D01*
X38822142Y48417000D02*
X35822142Y48417000D01*
X36250714Y48702715D01*
X36536428Y48988429D01*
X36679285Y49274143D01*
X35679285Y44131286D02*
X39536428Y46702715D01*
X38822142Y41559858D02*
X38822142Y43274143D01*
X38822142Y42417000D02*
X35822142Y42417000D01*
X36250714Y42702715D01*
X36536428Y42988429D01*
X36679285Y43274143D01*
X35822142Y39702715D02*
X35822142Y39417000D01*
X35965000Y39131286D01*
X36107857Y38988429D01*
X36393571Y38845572D01*
X36965000Y38702715D01*
X37679285Y38702715D01*
X38250714Y38845572D01*
X38536428Y38988429D01*
X38679285Y39131286D01*
X38822142Y39417000D01*
X38822142Y39702715D01*
X38679285Y39988429D01*
X38536428Y40131286D01*
X38250714Y40274143D01*
X37679285Y40417000D01*
X36965000Y40417000D01*
X36393571Y40274143D01*
X36107857Y40131286D01*
X35965000Y39988429D01*
X35822142Y39702715D01*
X35679285Y35274143D02*
X39536428Y37845572D01*
X36107857Y34417000D02*
X35965000Y34274143D01*
X35822142Y33988429D01*
X35822142Y33274143D01*
X35965000Y32988429D01*
X36107857Y32845572D01*
X36393571Y32702715D01*
X36679285Y32702715D01*
X37107857Y32845572D01*
X38822142Y34559858D01*
X38822142Y32702715D01*
X35822142Y30845572D02*
X35822142Y30559858D01*
X35965000Y30274143D01*
X36107857Y30131286D01*
X36393571Y29988429D01*
X36965000Y29845572D01*
X37679285Y29845572D01*
X38250714Y29988429D01*
X38536428Y30131286D01*
X38679285Y30274143D01*
X38822142Y30559858D01*
X38822142Y30845572D01*
X38679285Y31131286D01*
X38536428Y31274143D01*
X38250714Y31417000D01*
X37679285Y31559858D01*
X36965000Y31559858D01*
X36393571Y31417000D01*
X36107857Y31274143D01*
X35965000Y31131286D01*
X35822142Y30845572D01*
X36107857Y28702715D02*
X35965000Y28559858D01*
X35822142Y28274143D01*
X35822142Y27559858D01*
X35965000Y27274143D01*
X36107857Y27131286D01*
X36393571Y26988429D01*
X36679285Y26988429D01*
X37107857Y27131286D01*
X38822142Y28845572D01*
X38822142Y26988429D01*
X35822142Y25131286D02*
X35822142Y24845572D01*
X35965000Y24559858D01*
X36107857Y24417000D01*
X36393571Y24274143D01*
X36965000Y24131286D01*
X37679285Y24131286D01*
X38250714Y24274143D01*
X38536428Y24417000D01*
X38679285Y24559858D01*
X38822142Y24845572D01*
X38822142Y25131286D01*
X38679285Y25417000D01*
X38536428Y25559858D01*
X38250714Y25702715D01*
X37679285Y25845572D01*
X36965000Y25845572D01*
X36393571Y25702715D01*
X36107857Y25559858D01*
X35965000Y25417000D01*
X35822142Y25131286D01*
X36822142Y20845572D02*
X38822142Y20131286D01*
X36822142Y19417000D01*
X38822142Y16702715D02*
X38822142Y18417000D01*
X38822142Y17559858D02*
X35822142Y17559858D01*
X36250714Y17845572D01*
X36536428Y18131286D01*
X36679285Y18417000D01*
X42997285Y56718715D02*
X43140142Y57004429D01*
X43140142Y57575858D01*
X42997285Y57861572D01*
X42854428Y58004429D01*
X42568714Y58147286D01*
X41711571Y58147286D01*
X41425857Y58004429D01*
X41283000Y57861572D01*
X41140142Y57575858D01*
X41140142Y57004429D01*
X41283000Y56718715D01*
X41140142Y54147286D02*
X43140142Y54147286D01*
X41140142Y55433000D02*
X42711571Y55433000D01*
X42997285Y55290143D01*
X43140142Y55004429D01*
X43140142Y54575858D01*
X42997285Y54290143D01*
X42854428Y54147286D01*
X43140142Y52718715D02*
X41140142Y52718715D01*
X41711571Y52718715D02*
X41425857Y52575858D01*
X41283000Y52433000D01*
X41140142Y52147286D01*
X41140142Y51861572D01*
X43140142Y50861572D02*
X41140142Y50861572D01*
X40140142Y50861572D02*
X40283000Y51004429D01*
X40425857Y50861572D01*
X40283000Y50718715D01*
X40140142Y50861572D01*
X40425857Y50861572D01*
X43140142Y49004429D02*
X42997285Y49290143D01*
X42854428Y49433000D01*
X42568714Y49575858D01*
X41711571Y49575858D01*
X41425857Y49433000D01*
X41283000Y49290143D01*
X41140142Y49004429D01*
X41140142Y48575858D01*
X41283000Y48290143D01*
X41425857Y48147286D01*
X41711571Y48004429D01*
X42568714Y48004429D01*
X42854428Y48147286D01*
X42997285Y48290143D01*
X43140142Y48575858D01*
X43140142Y49004429D01*
X41140142Y45433000D02*
X43140142Y45433000D01*
X41140142Y46718715D02*
X42711571Y46718715D01*
X42997285Y46575858D01*
X43140142Y46290143D01*
X43140142Y45861572D01*
X42997285Y45575858D01*
X42854428Y45433000D01*
X42997285Y44147286D02*
X43140142Y43861572D01*
X43140142Y43290143D01*
X42997285Y43004429D01*
X42711571Y42861572D01*
X42568714Y42861572D01*
X42283000Y43004429D01*
X42140142Y43290143D01*
X42140142Y43718715D01*
X41997285Y44004429D01*
X41711571Y44147286D01*
X41568714Y44147286D01*
X41283000Y44004429D01*
X41140142Y43718715D01*
X41140142Y43290143D01*
X41283000Y43004429D01*
X42997285Y40433000D02*
X43140142Y40718715D01*
X43140142Y41290143D01*
X42997285Y41575858D01*
X42711571Y41718715D01*
X41568714Y41718715D01*
X41283000Y41575858D01*
X41140142Y41290143D01*
X41140142Y40718715D01*
X41283000Y40433000D01*
X41568714Y40290143D01*
X41854428Y40290143D01*
X42140142Y41718715D01*
X43140142Y38575858D02*
X42997285Y38861572D01*
X42711571Y39004429D01*
X40140142Y39004429D01*
X42997285Y36290143D02*
X43140142Y36575858D01*
X43140142Y37147286D01*
X42997285Y37433000D01*
X42711571Y37575858D01*
X41568714Y37575858D01*
X41283000Y37433000D01*
X41140142Y37147286D01*
X41140142Y36575858D01*
X41283000Y36290143D01*
X41568714Y36147286D01*
X41854428Y36147286D01*
X42140142Y37575858D01*
X42997285Y33575858D02*
X43140142Y33861572D01*
X43140142Y34433000D01*
X42997285Y34718715D01*
X42854428Y34861572D01*
X42568714Y35004429D01*
X41711571Y35004429D01*
X41425857Y34861572D01*
X41283000Y34718715D01*
X41140142Y34433000D01*
X41140142Y33861572D01*
X41283000Y33575858D01*
X41140142Y32718715D02*
X41140142Y31575858D01*
X40140142Y32290143D02*
X42711571Y32290143D01*
X42997285Y32147286D01*
X43140142Y31861572D01*
X43140142Y31575858D01*
X43140142Y30575858D02*
X41140142Y30575858D01*
X41711571Y30575858D02*
X41425857Y30433000D01*
X41283000Y30290143D01*
X41140142Y30004429D01*
X41140142Y29718715D01*
X43140142Y28718715D02*
X41140142Y28718715D01*
X40140142Y28718715D02*
X40283000Y28861572D01*
X40425857Y28718715D01*
X40283000Y28575858D01*
X40140142Y28718715D01*
X40425857Y28718715D01*
X42997285Y26004429D02*
X43140142Y26290143D01*
X43140142Y26861572D01*
X42997285Y27147286D01*
X42854428Y27290143D01*
X42568714Y27433000D01*
X41711571Y27433000D01*
X41425857Y27290143D01*
X41283000Y27147286D01*
X41140142Y26861572D01*
X41140142Y26290143D01*
X41283000Y26004429D01*
X42854428Y24718715D02*
X42997285Y24575858D01*
X43140142Y24718715D01*
X42997285Y24861572D01*
X42854428Y24718715D01*
X43140142Y24718715D01*
X42997285Y22004429D02*
X43140142Y22290143D01*
X43140142Y22861572D01*
X42997285Y23147286D01*
X42854428Y23290143D01*
X42568714Y23433000D01*
X41711571Y23433000D01*
X41425857Y23290143D01*
X41283000Y23147286D01*
X41140142Y22861572D01*
X41140142Y22290143D01*
X41283000Y22004429D01*
X43140142Y20290143D02*
X42997285Y20575858D01*
X42854428Y20718715D01*
X42568714Y20861572D01*
X41711571Y20861572D01*
X41425857Y20718715D01*
X41283000Y20575858D01*
X41140142Y20290143D01*
X41140142Y19861572D01*
X41283000Y19575858D01*
X41425857Y19433000D01*
X41711571Y19290143D01*
X42568714Y19290143D01*
X42854428Y19433000D01*
X42997285Y19575858D01*
X43140142Y19861572D01*
X43140142Y20290143D01*
X42854428Y18004429D02*
X42997285Y17861572D01*
X43140142Y18004429D01*
X42997285Y18147286D01*
X42854428Y18004429D01*
X43140142Y18004429D01*
X41140142Y15290143D02*
X43140142Y15290143D01*
X41140142Y16575858D02*
X42711571Y16575858D01*
X42997285Y16433000D01*
X43140142Y16147286D01*
X43140142Y15718715D01*
X42997285Y15433000D01*
X42854428Y15290143D01*
X43140142Y13861572D02*
X40140142Y13861572D01*
X41997285Y13575858D02*
X43140142Y12718715D01*
X41140142Y12718715D02*
X42283000Y13861572D01*
X46156571Y51306000D02*
X46013714Y51448858D01*
X45870857Y51734572D01*
X45870857Y52020286D01*
X46013714Y52306000D01*
X46156571Y52448858D01*
X46442285Y52591715D01*
X46728000Y52591715D01*
X47013714Y52448858D01*
X47156571Y52306000D01*
X47299428Y52020286D01*
X47299428Y51734572D01*
X47156571Y51448858D01*
X47013714Y51306000D01*
X45870857Y51306000D02*
X47013714Y51306000D01*
X47156571Y51163143D01*
X47156571Y51020286D01*
X47013714Y50734572D01*
X46728000Y50591715D01*
X46013714Y50591715D01*
X45585142Y50877429D01*
X45299428Y51306000D01*
X45156571Y51877429D01*
X45299428Y52448858D01*
X45585142Y52877429D01*
X46013714Y53163143D01*
X46585142Y53306000D01*
X47156571Y53163143D01*
X47585142Y52877429D01*
X47870857Y52448858D01*
X48013714Y51877429D01*
X47870857Y51306000D01*
X47585142Y50877429D01*
X47442285Y48020286D02*
X47585142Y48306000D01*
X47585142Y48877429D01*
X47442285Y49163143D01*
X47299428Y49306000D01*
X47013714Y49448858D01*
X46156571Y49448858D01*
X45870857Y49306000D01*
X45728000Y49163143D01*
X45585142Y48877429D01*
X45585142Y48306000D01*
X45728000Y48020286D01*
X45585142Y45448858D02*
X47585142Y45448858D01*
X45585142Y46734572D02*
X47156571Y46734572D01*
X47442285Y46591715D01*
X47585142Y46306000D01*
X47585142Y45877429D01*
X47442285Y45591715D01*
X47299428Y45448858D01*
X47585142Y44020286D02*
X45585142Y44020286D01*
X46156571Y44020286D02*
X45870857Y43877429D01*
X45728000Y43734572D01*
X45585142Y43448858D01*
X45585142Y43163143D01*
X47585142Y42163143D02*
X45585142Y42163143D01*
X44585142Y42163143D02*
X44728000Y42306000D01*
X44870857Y42163143D01*
X44728000Y42020286D01*
X44585142Y42163143D01*
X44870857Y42163143D01*
X47585142Y40306000D02*
X47442285Y40591715D01*
X47299428Y40734572D01*
X47013714Y40877429D01*
X46156571Y40877429D01*
X45870857Y40734572D01*
X45728000Y40591715D01*
X45585142Y40306000D01*
X45585142Y39877429D01*
X45728000Y39591715D01*
X45870857Y39448858D01*
X46156571Y39306000D01*
X47013714Y39306000D01*
X47299428Y39448858D01*
X47442285Y39591715D01*
X47585142Y39877429D01*
X47585142Y40306000D01*
X45585142Y36734572D02*
X47585142Y36734572D01*
X45585142Y38020286D02*
X47156571Y38020286D01*
X47442285Y37877429D01*
X47585142Y37591715D01*
X47585142Y37163143D01*
X47442285Y36877429D01*
X47299428Y36734572D01*
X47442285Y35448858D02*
X47585142Y35163143D01*
X47585142Y34591715D01*
X47442285Y34306000D01*
X47156571Y34163143D01*
X47013714Y34163143D01*
X46728000Y34306000D01*
X46585142Y34591715D01*
X46585142Y35020286D01*
X46442285Y35306000D01*
X46156571Y35448858D01*
X46013714Y35448858D01*
X45728000Y35306000D01*
X45585142Y35020286D01*
X45585142Y34591715D01*
X45728000Y34306000D01*
X47442285Y31734572D02*
X47585142Y32020286D01*
X47585142Y32591715D01*
X47442285Y32877429D01*
X47156571Y33020286D01*
X46013714Y33020286D01*
X45728000Y32877429D01*
X45585142Y32591715D01*
X45585142Y32020286D01*
X45728000Y31734572D01*
X46013714Y31591715D01*
X46299428Y31591715D01*
X46585142Y33020286D01*
X47585142Y29877429D02*
X47442285Y30163143D01*
X47156571Y30306000D01*
X44585142Y30306000D01*
X47442285Y27591715D02*
X47585142Y27877429D01*
X47585142Y28448858D01*
X47442285Y28734572D01*
X47156571Y28877429D01*
X46013714Y28877429D01*
X45728000Y28734572D01*
X45585142Y28448858D01*
X45585142Y27877429D01*
X45728000Y27591715D01*
X46013714Y27448858D01*
X46299428Y27448858D01*
X46585142Y28877429D01*
X47442285Y24877429D02*
X47585142Y25163143D01*
X47585142Y25734572D01*
X47442285Y26020286D01*
X47299428Y26163143D01*
X47013714Y26306000D01*
X46156571Y26306000D01*
X45870857Y26163143D01*
X45728000Y26020286D01*
X45585142Y25734572D01*
X45585142Y25163143D01*
X45728000Y24877429D01*
X45585142Y24020286D02*
X45585142Y22877429D01*
X44585142Y23591715D02*
X47156571Y23591715D01*
X47442285Y23448858D01*
X47585142Y23163143D01*
X47585142Y22877429D01*
X47585142Y21877429D02*
X45585142Y21877429D01*
X46156571Y21877429D02*
X45870857Y21734572D01*
X45728000Y21591715D01*
X45585142Y21306000D01*
X45585142Y21020286D01*
X47585142Y20020286D02*
X45585142Y20020286D01*
X44585142Y20020286D02*
X44728000Y20163143D01*
X44870857Y20020286D01*
X44728000Y19877429D01*
X44585142Y20020286D01*
X44870857Y20020286D01*
X47442285Y17306000D02*
X47585142Y17591715D01*
X47585142Y18163143D01*
X47442285Y18448858D01*
X47299428Y18591715D01*
X47013714Y18734572D01*
X46156571Y18734572D01*
X45870857Y18591715D01*
X45728000Y18448858D01*
X45585142Y18163143D01*
X45585142Y17591715D01*
X45728000Y17306000D01*
D11*
X39165000Y460000D03*
D12*
X39165000Y72460000D03*
D13*
X25781000Y62103000D03*
X25781000Y60071000D03*
D14*
X23495000Y63500000D03*
D15*
X23495000Y58420000D03*
D13*
X25781000Y11303000D03*
X25781000Y9271000D03*
D14*
X23495000Y12700000D03*
D15*
X23495000Y7620000D03*
D16*
X21656293Y73695520D03*
X56549919Y73695520D03*
X56549919Y-1198105D03*
X21656293Y-1198105D03*
D17*
X20066000Y31115000D03*
X20066000Y44704000D03*
X26924000Y22479000D03*
X20828000Y32258000D03*
X21463000Y31242000D03*
X26670000Y26797000D03*
D18*
X20066000Y31115000D02*
X20066000Y44704000D01*
D19*
X35630000Y72460000D02*
X39165000Y72460000D01*
X32512000Y69342000D02*
X35630000Y72460000D01*
X32512000Y62738000D02*
X32512000Y69342000D01*
X29845000Y60071000D02*
X32512000Y62738000D01*
X25781000Y60071000D02*
X29845000Y60071000D01*
D18*
X26924000Y22479000D02*
X24384000Y22479000D01*
X24384000Y22479000D02*
X20828000Y26035000D01*
X20828000Y26035000D02*
X20828000Y32258000D01*
X21463000Y31242000D02*
X21463000Y30226000D01*
X21463000Y30226000D02*
X24892000Y26797000D01*
X24892000Y26797000D02*
X26670000Y26797000D01*
D20*
G36*
X55209749Y75328522D02*
G01*
X54916917Y75035690D01*
X54686841Y74691356D01*
X54528361Y74308753D01*
X54447569Y73902583D01*
X54447569Y73488457D01*
X54528361Y73082287D01*
X54686841Y72699684D01*
X54916917Y72355350D01*
X55209749Y72062518D01*
X55554083Y71832442D01*
X55936686Y71673962D01*
X56342856Y71593170D01*
X56756982Y71593170D01*
X57163152Y71673962D01*
X57545755Y71832442D01*
X57890089Y72062518D01*
X58182921Y72355350D01*
X58347500Y72601661D01*
X58347501Y-104247D01*
X58182921Y142065D01*
X57890089Y434897D01*
X57545755Y664973D01*
X57163152Y823453D01*
X56756982Y904245D01*
X56342856Y904245D01*
X55936686Y823453D01*
X55554083Y664973D01*
X55209749Y434897D01*
X54916917Y142065D01*
X54686841Y-202269D01*
X54528361Y-584872D01*
X54447569Y-991042D01*
X54447569Y-1405168D01*
X54528361Y-1811338D01*
X54686841Y-2193941D01*
X54916917Y-2538275D01*
X55209749Y-2831107D01*
X55456080Y-2995700D01*
X22750132Y-2995700D01*
X22996463Y-2831107D01*
X23289295Y-2538275D01*
X23519371Y-2193941D01*
X23677851Y-1811338D01*
X23758643Y-1405168D01*
X23758643Y-991042D01*
X23677851Y-584872D01*
X23519371Y-202269D01*
X23289295Y142065D01*
X22996463Y434897D01*
X22652129Y664973D01*
X22269526Y823453D01*
X21863356Y904245D01*
X21449230Y904245D01*
X21043060Y823453D01*
X20660457Y664973D01*
X20316123Y434897D01*
X20023291Y142065D01*
X19858700Y-104264D01*
X19858700Y1460000D01*
X37026928Y1460000D01*
X37026928Y-540000D01*
X37039188Y-664482D01*
X37075498Y-784180D01*
X37134463Y-894494D01*
X37213815Y-991185D01*
X37310506Y-1070537D01*
X37420820Y-1129502D01*
X37540518Y-1165812D01*
X37665000Y-1178072D01*
X40665000Y-1178072D01*
X40789482Y-1165812D01*
X40909180Y-1129502D01*
X41019494Y-1070537D01*
X41116185Y-991185D01*
X41195537Y-894494D01*
X41254502Y-784180D01*
X41290812Y-664482D01*
X41303072Y-540000D01*
X41303072Y1460000D01*
X41290812Y1584482D01*
X41254502Y1704180D01*
X41195537Y1814494D01*
X41116185Y1911185D01*
X41019494Y1990537D01*
X40909180Y2049502D01*
X40789482Y2085812D01*
X40665000Y2098072D01*
X37665000Y2098072D01*
X37540518Y2085812D01*
X37420820Y2049502D01*
X37310506Y1990537D01*
X37213815Y1911185D01*
X37134463Y1814494D01*
X37075498Y1704180D01*
X37039188Y1584482D01*
X37026928Y1460000D01*
X19858700Y1460000D01*
X19858700Y6370320D01*
X21607248Y6370320D01*
X21619508Y6245838D01*
X21655818Y6126140D01*
X21714783Y6015826D01*
X21794135Y5919135D01*
X21890826Y5839783D01*
X22001140Y5780818D01*
X22120838Y5744508D01*
X22245320Y5732248D01*
X23209250Y5735320D01*
X23368000Y5894070D01*
X23368000Y7493000D01*
X23622000Y7493000D01*
X23622000Y5894070D01*
X23780750Y5735320D01*
X24744680Y5732248D01*
X24869162Y5744508D01*
X24988860Y5780818D01*
X25099174Y5839783D01*
X25195865Y5919135D01*
X25275217Y6015826D01*
X25334182Y6126140D01*
X25370492Y6245838D01*
X25382752Y6370320D01*
X25379680Y7334250D01*
X25220930Y7493000D01*
X23622000Y7493000D01*
X23368000Y7493000D01*
X21769070Y7493000D01*
X21610320Y7334250D01*
X21607248Y6370320D01*
X19858700Y6370320D01*
X19858700Y8869680D01*
X21607248Y8869680D01*
X21610320Y7905750D01*
X21769070Y7747000D01*
X23368000Y7747000D01*
X23368000Y9345930D01*
X23209250Y9504680D01*
X22245320Y9507752D01*
X22120838Y9495492D01*
X22001140Y9459182D01*
X21890826Y9400217D01*
X21794135Y9320865D01*
X21714783Y9224174D01*
X21655818Y9113860D01*
X21619508Y8994162D01*
X21607248Y8869680D01*
X19858700Y8869680D01*
X19858700Y12885625D01*
X21610320Y12885625D01*
X21610320Y12514375D01*
X21682747Y12150259D01*
X21824818Y11807269D01*
X22031074Y11498587D01*
X22293587Y11236074D01*
X22602269Y11029818D01*
X22945259Y10887747D01*
X23309375Y10815320D01*
X23680625Y10815320D01*
X24044741Y10887747D01*
X24279208Y10984866D01*
X24304989Y10855257D01*
X24420701Y10575905D01*
X24588688Y10324495D01*
X24621366Y10291817D01*
X24600970Y10271422D01*
X24716918Y10155474D01*
X24462739Y10071792D01*
X24331842Y9799225D01*
X24256635Y9506358D01*
X24256626Y9506197D01*
X23780750Y9504680D01*
X23622000Y9345930D01*
X23622000Y7747000D01*
X25220930Y7747000D01*
X25286987Y7813057D01*
X25545642Y7746635D01*
X25847553Y7730009D01*
X26146907Y7772603D01*
X26432199Y7872778D01*
X26581792Y7952739D01*
X26665475Y8206920D01*
X25781000Y9091395D01*
X25766858Y9077252D01*
X25587253Y9256857D01*
X25601395Y9271000D01*
X25587253Y9285142D01*
X25766858Y9464747D01*
X25781000Y9450605D01*
X25795143Y9464747D01*
X25974748Y9285142D01*
X25960605Y9271000D01*
X26845080Y8386525D01*
X27099261Y8470208D01*
X27230158Y8742775D01*
X27305365Y9035642D01*
X27321991Y9337553D01*
X27279397Y9636907D01*
X27179222Y9922199D01*
X27099261Y10071792D01*
X26845082Y10155474D01*
X26961030Y10271422D01*
X26940635Y10291817D01*
X26973312Y10324495D01*
X27141299Y10575905D01*
X27257011Y10855257D01*
X27316000Y11151816D01*
X27316000Y11454184D01*
X27257011Y11750743D01*
X27141299Y12030095D01*
X26973312Y12281505D01*
X26759505Y12495312D01*
X26508095Y12663299D01*
X26228743Y12779011D01*
X25932184Y12838000D01*
X25629816Y12838000D01*
X25379680Y12788245D01*
X25379680Y12885625D01*
X25307253Y13249741D01*
X25165182Y13592731D01*
X24958926Y13901413D01*
X24696413Y14163926D01*
X24387731Y14370182D01*
X24044741Y14512253D01*
X23680625Y14584680D01*
X23309375Y14584680D01*
X22945259Y14512253D01*
X22602269Y14370182D01*
X22293587Y14163926D01*
X22031074Y13901413D01*
X21824818Y13592731D01*
X21682747Y13249741D01*
X21610320Y12885625D01*
X19858700Y12885625D01*
X19858700Y32351813D01*
X19875500Y32351813D01*
X19875500Y32164187D01*
X19912104Y31980166D01*
X19983905Y31806822D01*
X20043001Y31718379D01*
X20043000Y26073553D01*
X20039203Y26035000D01*
X20043000Y25996447D01*
X20043000Y25996440D01*
X20054359Y25881114D01*
X20099246Y25733141D01*
X20172138Y25596768D01*
X20270236Y25477236D01*
X20300190Y25452653D01*
X23801658Y21951184D01*
X23826236Y21921236D01*
X23856184Y21896658D01*
X23856187Y21896655D01*
X23885559Y21872550D01*
X23945767Y21823138D01*
X24082140Y21750246D01*
X24195672Y21715806D01*
X24230112Y21705359D01*
X24244490Y21703943D01*
X24345439Y21694000D01*
X24345446Y21694000D01*
X24383999Y21690203D01*
X24422552Y21694000D01*
X26384380Y21694000D01*
X26472822Y21634905D01*
X26646166Y21563104D01*
X26830187Y21526500D01*
X27017813Y21526500D01*
X27201834Y21563104D01*
X27375178Y21634905D01*
X27531184Y21739145D01*
X27663855Y21871816D01*
X27768095Y22027822D01*
X27839896Y22201166D01*
X27876500Y22385187D01*
X27876500Y22572813D01*
X27839896Y22756834D01*
X27768095Y22930178D01*
X27663855Y23086184D01*
X27531184Y23218855D01*
X27375178Y23323095D01*
X27201834Y23394896D01*
X27017813Y23431500D01*
X26830187Y23431500D01*
X26646166Y23394896D01*
X26472822Y23323095D01*
X26384380Y23264000D01*
X24709158Y23264000D01*
X21613000Y26360157D01*
X21613000Y28965843D01*
X24309658Y26269184D01*
X24334236Y26239236D01*
X24364184Y26214658D01*
X24364187Y26214655D01*
X24393559Y26190550D01*
X24453767Y26141138D01*
X24590140Y26068246D01*
X24699738Y26035000D01*
X24738112Y26023359D01*
X24752490Y26021943D01*
X24853439Y26012000D01*
X24853446Y26012000D01*
X24891999Y26008203D01*
X24930552Y26012000D01*
X26130380Y26012000D01*
X26218822Y25952905D01*
X26392166Y25881104D01*
X26576187Y25844500D01*
X26763813Y25844500D01*
X26947834Y25881104D01*
X27121178Y25952905D01*
X27277184Y26057145D01*
X27409855Y26189816D01*
X27514095Y26345822D01*
X27585896Y26519166D01*
X27622500Y26703187D01*
X27622500Y26890813D01*
X27585896Y27074834D01*
X27514095Y27248178D01*
X27409855Y27404184D01*
X27277184Y27536855D01*
X27121178Y27641095D01*
X26947834Y27712896D01*
X26763813Y27749500D01*
X26576187Y27749500D01*
X26392166Y27712896D01*
X26218822Y27641095D01*
X26130380Y27582000D01*
X25217158Y27582000D01*
X22248000Y30551157D01*
X22248000Y30702380D01*
X22307095Y30790822D01*
X22378896Y30964166D01*
X22415500Y31148187D01*
X22415500Y31335813D01*
X22378896Y31519834D01*
X22307095Y31693178D01*
X22202855Y31849184D01*
X22070184Y31981855D01*
X21914178Y32086095D01*
X21776325Y32143195D01*
X21780500Y32164187D01*
X21780500Y32351813D01*
X21743896Y32535834D01*
X21672095Y32709178D01*
X21567855Y32865184D01*
X21435184Y32997855D01*
X21279178Y33102095D01*
X21105834Y33173896D01*
X20921813Y33210500D01*
X20734187Y33210500D01*
X20550166Y33173896D01*
X20376822Y33102095D01*
X20220816Y32997855D01*
X20088145Y32865184D01*
X19983905Y32709178D01*
X19912104Y32535834D01*
X19875500Y32351813D01*
X19858700Y32351813D01*
X19858700Y53637715D01*
X34520000Y53637715D01*
X34520000Y15196286D01*
X38838000Y15196286D01*
X38838000Y12073123D01*
X38746467Y12064108D01*
X38344018Y11942026D01*
X37973119Y11743777D01*
X37648023Y11476977D01*
X37381223Y11151881D01*
X37182974Y10780981D01*
X37060892Y10378532D01*
X37030000Y10064881D01*
X37030000Y7855118D01*
X37060892Y7541467D01*
X37182975Y7139018D01*
X37381224Y6768119D01*
X37648024Y6443023D01*
X37973120Y6176223D01*
X38344019Y5977974D01*
X38746468Y5855892D01*
X39165000Y5814670D01*
X39583533Y5855892D01*
X39985982Y5977974D01*
X40356881Y6176223D01*
X40681977Y6443023D01*
X40948777Y6768119D01*
X41147026Y7139018D01*
X41269108Y7541467D01*
X41300000Y7855118D01*
X41300000Y10064882D01*
X41269108Y10378533D01*
X41147026Y10780982D01*
X40948777Y11151881D01*
X40899204Y11212286D01*
X45208000Y11212286D01*
X45208000Y15799572D01*
X49653000Y15799572D01*
X49653000Y54812429D01*
X45208000Y54812429D01*
X45208000Y59653715D01*
X38838000Y59653715D01*
X38838000Y53637715D01*
X34520000Y53637715D01*
X19858700Y53637715D01*
X19858700Y57170320D01*
X21607248Y57170320D01*
X21619508Y57045838D01*
X21655818Y56926140D01*
X21714783Y56815826D01*
X21794135Y56719135D01*
X21890826Y56639783D01*
X22001140Y56580818D01*
X22120838Y56544508D01*
X22245320Y56532248D01*
X23209250Y56535320D01*
X23368000Y56694070D01*
X23368000Y58293000D01*
X23622000Y58293000D01*
X23622000Y56694070D01*
X23780750Y56535320D01*
X24744680Y56532248D01*
X24869162Y56544508D01*
X24988860Y56580818D01*
X25099174Y56639783D01*
X25195865Y56719135D01*
X25275217Y56815826D01*
X25334182Y56926140D01*
X25370492Y57045838D01*
X25382752Y57170320D01*
X25379680Y58134250D01*
X25220930Y58293000D01*
X23622000Y58293000D01*
X23368000Y58293000D01*
X21769070Y58293000D01*
X21610320Y58134250D01*
X21607248Y57170320D01*
X19858700Y57170320D01*
X19858700Y59669680D01*
X21607248Y59669680D01*
X21610320Y58705750D01*
X21769070Y58547000D01*
X23368000Y58547000D01*
X23368000Y60145930D01*
X23209250Y60304680D01*
X22245320Y60307752D01*
X22120838Y60295492D01*
X22001140Y60259182D01*
X21890826Y60200217D01*
X21794135Y60120865D01*
X21714783Y60024174D01*
X21655818Y59913860D01*
X21619508Y59794162D01*
X21607248Y59669680D01*
X19858700Y59669680D01*
X19858700Y63685625D01*
X21610320Y63685625D01*
X21610320Y63314375D01*
X21682747Y62950259D01*
X21824818Y62607269D01*
X22031074Y62298587D01*
X22293587Y62036074D01*
X22602269Y61829818D01*
X22945259Y61687747D01*
X23309375Y61615320D01*
X23680625Y61615320D01*
X24044741Y61687747D01*
X24279208Y61784866D01*
X24304989Y61655257D01*
X24420701Y61375905D01*
X24588688Y61124495D01*
X24621366Y61091817D01*
X24600970Y61071422D01*
X24716918Y60955474D01*
X24462739Y60871792D01*
X24331842Y60599225D01*
X24256635Y60306358D01*
X24256626Y60306197D01*
X23780750Y60304680D01*
X23622000Y60145930D01*
X23622000Y58547000D01*
X25220930Y58547000D01*
X25286987Y58613057D01*
X25545642Y58546635D01*
X25847553Y58530009D01*
X26146907Y58572603D01*
X26432199Y58672778D01*
X26581792Y58752739D01*
X26665475Y59006920D01*
X25781000Y59891395D01*
X25766858Y59877252D01*
X25587253Y60056857D01*
X25601395Y60071000D01*
X25587253Y60085142D01*
X25766858Y60264747D01*
X25781000Y60250605D01*
X25795143Y60264747D01*
X25974748Y60085142D01*
X25960605Y60071000D01*
X26845080Y59186525D01*
X27099261Y59270208D01*
X27230158Y59542775D01*
X27305365Y59835642D01*
X27321991Y60137553D01*
X27279397Y60436907D01*
X27179222Y60722199D01*
X27099261Y60871792D01*
X26845082Y60955474D01*
X26961030Y61071422D01*
X26940635Y61091817D01*
X26973312Y61124495D01*
X27141299Y61375905D01*
X27257011Y61655257D01*
X27316000Y61951816D01*
X27316000Y62254184D01*
X27257011Y62550743D01*
X27141299Y62830095D01*
X26973312Y63081505D01*
X26759505Y63295312D01*
X26508095Y63463299D01*
X26228743Y63579011D01*
X25932184Y63638000D01*
X25629816Y63638000D01*
X25379680Y63588245D01*
X25379680Y63685625D01*
X25307253Y64049741D01*
X25165182Y64392731D01*
X24958926Y64701413D01*
X24696413Y64963926D01*
X24545325Y65064881D01*
X37030000Y65064881D01*
X37030000Y62855118D01*
X37060892Y62541467D01*
X37182975Y62139018D01*
X37381224Y61768119D01*
X37648024Y61443023D01*
X37973120Y61176223D01*
X38344019Y60977974D01*
X38746468Y60855892D01*
X39165000Y60814670D01*
X39583533Y60855892D01*
X39985982Y60977974D01*
X40356881Y61176223D01*
X40681977Y61443023D01*
X40948777Y61768119D01*
X41147026Y62139018D01*
X41269108Y62541467D01*
X41300000Y62855118D01*
X41300000Y65064882D01*
X41269108Y65378533D01*
X41147026Y65780982D01*
X40948777Y66151881D01*
X40681977Y66476977D01*
X40356881Y66743777D01*
X39985981Y66942026D01*
X39583532Y67064108D01*
X39165000Y67105330D01*
X38746467Y67064108D01*
X38344018Y66942026D01*
X37973119Y66743777D01*
X37648023Y66476977D01*
X37381223Y66151881D01*
X37182974Y65780981D01*
X37060892Y65378532D01*
X37030000Y65064881D01*
X24545325Y65064881D01*
X24387731Y65170182D01*
X24044741Y65312253D01*
X23680625Y65384680D01*
X23309375Y65384680D01*
X22945259Y65312253D01*
X22602269Y65170182D01*
X22293587Y64963926D01*
X22031074Y64701413D01*
X21824818Y64392731D01*
X21682747Y64049741D01*
X21610320Y63685625D01*
X19858700Y63685625D01*
X19858700Y72601679D01*
X20023291Y72355350D01*
X20316123Y72062518D01*
X20660457Y71832442D01*
X21043060Y71673962D01*
X21449230Y71593170D01*
X21863356Y71593170D01*
X22269526Y71673962D01*
X22652129Y71832442D01*
X22996463Y72062518D01*
X23013511Y72079566D01*
X37074876Y72079566D01*
X37105856Y71951645D01*
X37234990Y71657239D01*
X37419078Y71393683D01*
X37651046Y71171105D01*
X37921980Y70998058D01*
X38221468Y70881193D01*
X38538000Y70825000D01*
X39038000Y70825000D01*
X39038000Y72333000D01*
X39292000Y72333000D01*
X39292000Y70825000D01*
X39792000Y70825000D01*
X40108532Y70881193D01*
X40408020Y70998058D01*
X40678954Y71171105D01*
X40910922Y71393683D01*
X41095010Y71657239D01*
X41224144Y71951645D01*
X41255124Y72079566D01*
X41135777Y72333000D01*
X39292000Y72333000D01*
X39038000Y72333000D01*
X37194223Y72333000D01*
X37074876Y72079566D01*
X23013511Y72079566D01*
X23289295Y72355350D01*
X23519371Y72699684D01*
X23577671Y72840434D01*
X37074876Y72840434D01*
X37194223Y72587000D01*
X39038000Y72587000D01*
X39038000Y72607000D01*
X39292000Y72607000D01*
X39292000Y72587000D01*
X41135777Y72587000D01*
X41255124Y72840434D01*
X41224144Y72968355D01*
X41095010Y73262761D01*
X40910922Y73526317D01*
X40678954Y73748895D01*
X40408020Y73921942D01*
X40108532Y74038807D01*
X39792000Y74095000D01*
X38538000Y74095000D01*
X38221468Y74038807D01*
X37921980Y73921942D01*
X37651046Y73748895D01*
X37419078Y73526317D01*
X37234990Y73262761D01*
X37105856Y72968355D01*
X37074876Y72840434D01*
X23577671Y72840434D01*
X23677851Y73082287D01*
X23758643Y73488457D01*
X23758643Y73902583D01*
X23677851Y74308753D01*
X23519371Y74691356D01*
X23289295Y75035690D01*
X22996463Y75328522D01*
X22750139Y75493110D01*
X55456073Y75493110D01*
X55209749Y75328522D01*
X55209749Y75328522D01*
G37*
X55209749Y75328522D02*
X54916917Y75035690D01*
X54686841Y74691356D01*
X54528361Y74308753D01*
X54447569Y73902583D01*
X54447569Y73488457D01*
X54528361Y73082287D01*
X54686841Y72699684D01*
X54916917Y72355350D01*
X55209749Y72062518D01*
X55554083Y71832442D01*
X55936686Y71673962D01*
X56342856Y71593170D01*
X56756982Y71593170D01*
X57163152Y71673962D01*
X57545755Y71832442D01*
X57890089Y72062518D01*
X58182921Y72355350D01*
X58347500Y72601661D01*
X58347501Y-104247D01*
X58182921Y142065D01*
X57890089Y434897D01*
X57545755Y664973D01*
X57163152Y823453D01*
X56756982Y904245D01*
X56342856Y904245D01*
X55936686Y823453D01*
X55554083Y664973D01*
X55209749Y434897D01*
X54916917Y142065D01*
X54686841Y-202269D01*
X54528361Y-584872D01*
X54447569Y-991042D01*
X54447569Y-1405168D01*
X54528361Y-1811338D01*
X54686841Y-2193941D01*
X54916917Y-2538275D01*
X55209749Y-2831107D01*
X55456080Y-2995700D01*
X22750132Y-2995700D01*
X22996463Y-2831107D01*
X23289295Y-2538275D01*
X23519371Y-2193941D01*
X23677851Y-1811338D01*
X23758643Y-1405168D01*
X23758643Y-991042D01*
X23677851Y-584872D01*
X23519371Y-202269D01*
X23289295Y142065D01*
X22996463Y434897D01*
X22652129Y664973D01*
X22269526Y823453D01*
X21863356Y904245D01*
X21449230Y904245D01*
X21043060Y823453D01*
X20660457Y664973D01*
X20316123Y434897D01*
X20023291Y142065D01*
X19858700Y-104264D01*
X19858700Y1460000D01*
X37026928Y1460000D01*
X37026928Y-540000D01*
X37039188Y-664482D01*
X37075498Y-784180D01*
X37134463Y-894494D01*
X37213815Y-991185D01*
X37310506Y-1070537D01*
X37420820Y-1129502D01*
X37540518Y-1165812D01*
X37665000Y-1178072D01*
X40665000Y-1178072D01*
X40789482Y-1165812D01*
X40909180Y-1129502D01*
X41019494Y-1070537D01*
X41116185Y-991185D01*
X41195537Y-894494D01*
X41254502Y-784180D01*
X41290812Y-664482D01*
X41303072Y-540000D01*
X41303072Y1460000D01*
X41290812Y1584482D01*
X41254502Y1704180D01*
X41195537Y1814494D01*
X41116185Y1911185D01*
X41019494Y1990537D01*
X40909180Y2049502D01*
X40789482Y2085812D01*
X40665000Y2098072D01*
X37665000Y2098072D01*
X37540518Y2085812D01*
X37420820Y2049502D01*
X37310506Y1990537D01*
X37213815Y1911185D01*
X37134463Y1814494D01*
X37075498Y1704180D01*
X37039188Y1584482D01*
X37026928Y1460000D01*
X19858700Y1460000D01*
X19858700Y6370320D01*
X21607248Y6370320D01*
X21619508Y6245838D01*
X21655818Y6126140D01*
X21714783Y6015826D01*
X21794135Y5919135D01*
X21890826Y5839783D01*
X22001140Y5780818D01*
X22120838Y5744508D01*
X22245320Y5732248D01*
X23209250Y5735320D01*
X23368000Y5894070D01*
X23368000Y7493000D01*
X23622000Y7493000D01*
X23622000Y5894070D01*
X23780750Y5735320D01*
X24744680Y5732248D01*
X24869162Y5744508D01*
X24988860Y5780818D01*
X25099174Y5839783D01*
X25195865Y5919135D01*
X25275217Y6015826D01*
X25334182Y6126140D01*
X25370492Y6245838D01*
X25382752Y6370320D01*
X25379680Y7334250D01*
X25220930Y7493000D01*
X23622000Y7493000D01*
X23368000Y7493000D01*
X21769070Y7493000D01*
X21610320Y7334250D01*
X21607248Y6370320D01*
X19858700Y6370320D01*
X19858700Y8869680D01*
X21607248Y8869680D01*
X21610320Y7905750D01*
X21769070Y7747000D01*
X23368000Y7747000D01*
X23368000Y9345930D01*
X23209250Y9504680D01*
X22245320Y9507752D01*
X22120838Y9495492D01*
X22001140Y9459182D01*
X21890826Y9400217D01*
X21794135Y9320865D01*
X21714783Y9224174D01*
X21655818Y9113860D01*
X21619508Y8994162D01*
X21607248Y8869680D01*
X19858700Y8869680D01*
X19858700Y12885625D01*
X21610320Y12885625D01*
X21610320Y12514375D01*
X21682747Y12150259D01*
X21824818Y11807269D01*
X22031074Y11498587D01*
X22293587Y11236074D01*
X22602269Y11029818D01*
X22945259Y10887747D01*
X23309375Y10815320D01*
X23680625Y10815320D01*
X24044741Y10887747D01*
X24279208Y10984866D01*
X24304989Y10855257D01*
X24420701Y10575905D01*
X24588688Y10324495D01*
X24621366Y10291817D01*
X24600970Y10271422D01*
X24716918Y10155474D01*
X24462739Y10071792D01*
X24331842Y9799225D01*
X24256635Y9506358D01*
X24256626Y9506197D01*
X23780750Y9504680D01*
X23622000Y9345930D01*
X23622000Y7747000D01*
X25220930Y7747000D01*
X25286987Y7813057D01*
X25545642Y7746635D01*
X25847553Y7730009D01*
X26146907Y7772603D01*
X26432199Y7872778D01*
X26581792Y7952739D01*
X26665475Y8206920D01*
X25781000Y9091395D01*
X25766858Y9077252D01*
X25587253Y9256857D01*
X25601395Y9271000D01*
X25587253Y9285142D01*
X25766858Y9464747D01*
X25781000Y9450605D01*
X25795143Y9464747D01*
X25974748Y9285142D01*
X25960605Y9271000D01*
X26845080Y8386525D01*
X27099261Y8470208D01*
X27230158Y8742775D01*
X27305365Y9035642D01*
X27321991Y9337553D01*
X27279397Y9636907D01*
X27179222Y9922199D01*
X27099261Y10071792D01*
X26845082Y10155474D01*
X26961030Y10271422D01*
X26940635Y10291817D01*
X26973312Y10324495D01*
X27141299Y10575905D01*
X27257011Y10855257D01*
X27316000Y11151816D01*
X27316000Y11454184D01*
X27257011Y11750743D01*
X27141299Y12030095D01*
X26973312Y12281505D01*
X26759505Y12495312D01*
X26508095Y12663299D01*
X26228743Y12779011D01*
X25932184Y12838000D01*
X25629816Y12838000D01*
X25379680Y12788245D01*
X25379680Y12885625D01*
X25307253Y13249741D01*
X25165182Y13592731D01*
X24958926Y13901413D01*
X24696413Y14163926D01*
X24387731Y14370182D01*
X24044741Y14512253D01*
X23680625Y14584680D01*
X23309375Y14584680D01*
X22945259Y14512253D01*
X22602269Y14370182D01*
X22293587Y14163926D01*
X22031074Y13901413D01*
X21824818Y13592731D01*
X21682747Y13249741D01*
X21610320Y12885625D01*
X19858700Y12885625D01*
X19858700Y32351813D01*
X19875500Y32351813D01*
X19875500Y32164187D01*
X19912104Y31980166D01*
X19983905Y31806822D01*
X20043001Y31718379D01*
X20043000Y26073553D01*
X20039203Y26035000D01*
X20043000Y25996447D01*
X20043000Y25996440D01*
X20054359Y25881114D01*
X20099246Y25733141D01*
X20172138Y25596768D01*
X20270236Y25477236D01*
X20300190Y25452653D01*
X23801658Y21951184D01*
X23826236Y21921236D01*
X23856184Y21896658D01*
X23856187Y21896655D01*
X23885559Y21872550D01*
X23945767Y21823138D01*
X24082140Y21750246D01*
X24195672Y21715806D01*
X24230112Y21705359D01*
X24244490Y21703943D01*
X24345439Y21694000D01*
X24345446Y21694000D01*
X24383999Y21690203D01*
X24422552Y21694000D01*
X26384380Y21694000D01*
X26472822Y21634905D01*
X26646166Y21563104D01*
X26830187Y21526500D01*
X27017813Y21526500D01*
X27201834Y21563104D01*
X27375178Y21634905D01*
X27531184Y21739145D01*
X27663855Y21871816D01*
X27768095Y22027822D01*
X27839896Y22201166D01*
X27876500Y22385187D01*
X27876500Y22572813D01*
X27839896Y22756834D01*
X27768095Y22930178D01*
X27663855Y23086184D01*
X27531184Y23218855D01*
X27375178Y23323095D01*
X27201834Y23394896D01*
X27017813Y23431500D01*
X26830187Y23431500D01*
X26646166Y23394896D01*
X26472822Y23323095D01*
X26384380Y23264000D01*
X24709158Y23264000D01*
X21613000Y26360157D01*
X21613000Y28965843D01*
X24309658Y26269184D01*
X24334236Y26239236D01*
X24364184Y26214658D01*
X24364187Y26214655D01*
X24393559Y26190550D01*
X24453767Y26141138D01*
X24590140Y26068246D01*
X24699738Y26035000D01*
X24738112Y26023359D01*
X24752490Y26021943D01*
X24853439Y26012000D01*
X24853446Y26012000D01*
X24891999Y26008203D01*
X24930552Y26012000D01*
X26130380Y26012000D01*
X26218822Y25952905D01*
X26392166Y25881104D01*
X26576187Y25844500D01*
X26763813Y25844500D01*
X26947834Y25881104D01*
X27121178Y25952905D01*
X27277184Y26057145D01*
X27409855Y26189816D01*
X27514095Y26345822D01*
X27585896Y26519166D01*
X27622500Y26703187D01*
X27622500Y26890813D01*
X27585896Y27074834D01*
X27514095Y27248178D01*
X27409855Y27404184D01*
X27277184Y27536855D01*
X27121178Y27641095D01*
X26947834Y27712896D01*
X26763813Y27749500D01*
X26576187Y27749500D01*
X26392166Y27712896D01*
X26218822Y27641095D01*
X26130380Y27582000D01*
X25217158Y27582000D01*
X22248000Y30551157D01*
X22248000Y30702380D01*
X22307095Y30790822D01*
X22378896Y30964166D01*
X22415500Y31148187D01*
X22415500Y31335813D01*
X22378896Y31519834D01*
X22307095Y31693178D01*
X22202855Y31849184D01*
X22070184Y31981855D01*
X21914178Y32086095D01*
X21776325Y32143195D01*
X21780500Y32164187D01*
X21780500Y32351813D01*
X21743896Y32535834D01*
X21672095Y32709178D01*
X21567855Y32865184D01*
X21435184Y32997855D01*
X21279178Y33102095D01*
X21105834Y33173896D01*
X20921813Y33210500D01*
X20734187Y33210500D01*
X20550166Y33173896D01*
X20376822Y33102095D01*
X20220816Y32997855D01*
X20088145Y32865184D01*
X19983905Y32709178D01*
X19912104Y32535834D01*
X19875500Y32351813D01*
X19858700Y32351813D01*
X19858700Y53637715D01*
X34520000Y53637715D01*
X34520000Y15196286D01*
X38838000Y15196286D01*
X38838000Y12073123D01*
X38746467Y12064108D01*
X38344018Y11942026D01*
X37973119Y11743777D01*
X37648023Y11476977D01*
X37381223Y11151881D01*
X37182974Y10780981D01*
X37060892Y10378532D01*
X37030000Y10064881D01*
X37030000Y7855118D01*
X37060892Y7541467D01*
X37182975Y7139018D01*
X37381224Y6768119D01*
X37648024Y6443023D01*
X37973120Y6176223D01*
X38344019Y5977974D01*
X38746468Y5855892D01*
X39165000Y5814670D01*
X39583533Y5855892D01*
X39985982Y5977974D01*
X40356881Y6176223D01*
X40681977Y6443023D01*
X40948777Y6768119D01*
X41147026Y7139018D01*
X41269108Y7541467D01*
X41300000Y7855118D01*
X41300000Y10064882D01*
X41269108Y10378533D01*
X41147026Y10780982D01*
X40948777Y11151881D01*
X40899204Y11212286D01*
X45208000Y11212286D01*
X45208000Y15799572D01*
X49653000Y15799572D01*
X49653000Y54812429D01*
X45208000Y54812429D01*
X45208000Y59653715D01*
X38838000Y59653715D01*
X38838000Y53637715D01*
X34520000Y53637715D01*
X19858700Y53637715D01*
X19858700Y57170320D01*
X21607248Y57170320D01*
X21619508Y57045838D01*
X21655818Y56926140D01*
X21714783Y56815826D01*
X21794135Y56719135D01*
X21890826Y56639783D01*
X22001140Y56580818D01*
X22120838Y56544508D01*
X22245320Y56532248D01*
X23209250Y56535320D01*
X23368000Y56694070D01*
X23368000Y58293000D01*
X23622000Y58293000D01*
X23622000Y56694070D01*
X23780750Y56535320D01*
X24744680Y56532248D01*
X24869162Y56544508D01*
X24988860Y56580818D01*
X25099174Y56639783D01*
X25195865Y56719135D01*
X25275217Y56815826D01*
X25334182Y56926140D01*
X25370492Y57045838D01*
X25382752Y57170320D01*
X25379680Y58134250D01*
X25220930Y58293000D01*
X23622000Y58293000D01*
X23368000Y58293000D01*
X21769070Y58293000D01*
X21610320Y58134250D01*
X21607248Y57170320D01*
X19858700Y57170320D01*
X19858700Y59669680D01*
X21607248Y59669680D01*
X21610320Y58705750D01*
X21769070Y58547000D01*
X23368000Y58547000D01*
X23368000Y60145930D01*
X23209250Y60304680D01*
X22245320Y60307752D01*
X22120838Y60295492D01*
X22001140Y60259182D01*
X21890826Y60200217D01*
X21794135Y60120865D01*
X21714783Y60024174D01*
X21655818Y59913860D01*
X21619508Y59794162D01*
X21607248Y59669680D01*
X19858700Y59669680D01*
X19858700Y63685625D01*
X21610320Y63685625D01*
X21610320Y63314375D01*
X21682747Y62950259D01*
X21824818Y62607269D01*
X22031074Y62298587D01*
X22293587Y62036074D01*
X22602269Y61829818D01*
X22945259Y61687747D01*
X23309375Y61615320D01*
X23680625Y61615320D01*
X24044741Y61687747D01*
X24279208Y61784866D01*
X24304989Y61655257D01*
X24420701Y61375905D01*
X24588688Y61124495D01*
X24621366Y61091817D01*
X24600970Y61071422D01*
X24716918Y60955474D01*
X24462739Y60871792D01*
X24331842Y60599225D01*
X24256635Y60306358D01*
X24256626Y60306197D01*
X23780750Y60304680D01*
X23622000Y60145930D01*
X23622000Y58547000D01*
X25220930Y58547000D01*
X25286987Y58613057D01*
X25545642Y58546635D01*
X25847553Y58530009D01*
X26146907Y58572603D01*
X26432199Y58672778D01*
X26581792Y58752739D01*
X26665475Y59006920D01*
X25781000Y59891395D01*
X25766858Y59877252D01*
X25587253Y60056857D01*
X25601395Y60071000D01*
X25587253Y60085142D01*
X25766858Y60264747D01*
X25781000Y60250605D01*
X25795143Y60264747D01*
X25974748Y60085142D01*
X25960605Y60071000D01*
X26845080Y59186525D01*
X27099261Y59270208D01*
X27230158Y59542775D01*
X27305365Y59835642D01*
X27321991Y60137553D01*
X27279397Y60436907D01*
X27179222Y60722199D01*
X27099261Y60871792D01*
X26845082Y60955474D01*
X26961030Y61071422D01*
X26940635Y61091817D01*
X26973312Y61124495D01*
X27141299Y61375905D01*
X27257011Y61655257D01*
X27316000Y61951816D01*
X27316000Y62254184D01*
X27257011Y62550743D01*
X27141299Y62830095D01*
X26973312Y63081505D01*
X26759505Y63295312D01*
X26508095Y63463299D01*
X26228743Y63579011D01*
X25932184Y63638000D01*
X25629816Y63638000D01*
X25379680Y63588245D01*
X25379680Y63685625D01*
X25307253Y64049741D01*
X25165182Y64392731D01*
X24958926Y64701413D01*
X24696413Y64963926D01*
X24545325Y65064881D01*
X37030000Y65064881D01*
X37030000Y62855118D01*
X37060892Y62541467D01*
X37182975Y62139018D01*
X37381224Y61768119D01*
X37648024Y61443023D01*
X37973120Y61176223D01*
X38344019Y60977974D01*
X38746468Y60855892D01*
X39165000Y60814670D01*
X39583533Y60855892D01*
X39985982Y60977974D01*
X40356881Y61176223D01*
X40681977Y61443023D01*
X40948777Y61768119D01*
X41147026Y62139018D01*
X41269108Y62541467D01*
X41300000Y62855118D01*
X41300000Y65064882D01*
X41269108Y65378533D01*
X41147026Y65780982D01*
X40948777Y66151881D01*
X40681977Y66476977D01*
X40356881Y66743777D01*
X39985981Y66942026D01*
X39583532Y67064108D01*
X39165000Y67105330D01*
X38746467Y67064108D01*
X38344018Y66942026D01*
X37973119Y66743777D01*
X37648023Y66476977D01*
X37381223Y66151881D01*
X37182974Y65780981D01*
X37060892Y65378532D01*
X37030000Y65064881D01*
X24545325Y65064881D01*
X24387731Y65170182D01*
X24044741Y65312253D01*
X23680625Y65384680D01*
X23309375Y65384680D01*
X22945259Y65312253D01*
X22602269Y65170182D01*
X22293587Y64963926D01*
X22031074Y64701413D01*
X21824818Y64392731D01*
X21682747Y64049741D01*
X21610320Y63685625D01*
X19858700Y63685625D01*
X19858700Y72601679D01*
X20023291Y72355350D01*
X20316123Y72062518D01*
X20660457Y71832442D01*
X21043060Y71673962D01*
X21449230Y71593170D01*
X21863356Y71593170D01*
X22269526Y71673962D01*
X22652129Y71832442D01*
X22996463Y72062518D01*
X23013511Y72079566D01*
X37074876Y72079566D01*
X37105856Y71951645D01*
X37234990Y71657239D01*
X37419078Y71393683D01*
X37651046Y71171105D01*
X37921980Y70998058D01*
X38221468Y70881193D01*
X38538000Y70825000D01*
X39038000Y70825000D01*
X39038000Y72333000D01*
X39292000Y72333000D01*
X39292000Y70825000D01*
X39792000Y70825000D01*
X40108532Y70881193D01*
X40408020Y70998058D01*
X40678954Y71171105D01*
X40910922Y71393683D01*
X41095010Y71657239D01*
X41224144Y71951645D01*
X41255124Y72079566D01*
X41135777Y72333000D01*
X39292000Y72333000D01*
X39038000Y72333000D01*
X37194223Y72333000D01*
X37074876Y72079566D01*
X23013511Y72079566D01*
X23289295Y72355350D01*
X23519371Y72699684D01*
X23577671Y72840434D01*
X37074876Y72840434D01*
X37194223Y72587000D01*
X39038000Y72587000D01*
X39038000Y72607000D01*
X39292000Y72607000D01*
X39292000Y72587000D01*
X41135777Y72587000D01*
X41255124Y72840434D01*
X41224144Y72968355D01*
X41095010Y73262761D01*
X40910922Y73526317D01*
X40678954Y73748895D01*
X40408020Y73921942D01*
X40108532Y74038807D01*
X39792000Y74095000D01*
X38538000Y74095000D01*
X38221468Y74038807D01*
X37921980Y73921942D01*
X37651046Y73748895D01*
X37419078Y73526317D01*
X37234990Y73262761D01*
X37105856Y72968355D01*
X37074876Y72840434D01*
X23577671Y72840434D01*
X23677851Y73082287D01*
X23758643Y73488457D01*
X23758643Y73902583D01*
X23677851Y74308753D01*
X23519371Y74691356D01*
X23289295Y75035690D01*
X22996463Y75328522D01*
X22750139Y75493110D01*
X55456073Y75493110D01*
X55209749Y75328522D01*
M02*
