<?xml version="1.0" standalone="no"?>
 <!DOCTYPE svg PUBLIC "-//W3C//DTD SVG 1.1//EN" 
 "http://www.w3.org/Graphics/SVG/1.1/DTD/svg11.dtd"> 
<svg xmlns="http://www.w3.org/2000/svg" version="1.1" 
    width="29.7002cm" height="21.0007cm" viewBox="0 0 116930 82680 ">
<title>SVG Picture created as SolarCharger2020-B_Cu.svg date 2020/12/17 14:49:22 </title>
  <desc>Picture generated by PCBNEW </desc>
<g style="fill:#000000; fill-opacity:1;stroke:#000000; stroke-opacity:1;
stroke-linecap:round; stroke-linejoin:round; "
 transform="translate(0 0) scale(1 1)">
</g>
<g style="fill:#000000; fill-opacity:0.0; 
stroke:#000000; stroke-width:-0.000393701; stroke-opacity:1; 
stroke-linecap:round; stroke-linejoin:round;">
</g>
<g style="fill:#000000; fill-opacity:0.0; 
stroke:#000000; stroke-width:236.22; stroke-opacity:1; 
stroke-linecap:round; stroke-linejoin:round;">
<path d="M52603 30419
L52603 31150
L53053 30757
L53053 30925
L53109 31038
L53165 31094
L53278 31150
L53559 31150
L53671 31094
L53728 31038
L53784 30925
L53784 30588
L53728 30475
L53671 30419
" />
<path d="M53784 32275
L53784 31600
" />
<path d="M53784 31938
L52603 31938
L52771 31825
L52884 31713
L52940 31600
" />
<path d="M52546 33625
L54065 32613
" />
<path d="M53784 34637
L53784 33962
" />
<path d="M53784 34300
L52603 34300
L52771 34187
L52884 34075
L52940 33962
" />
<path d="M52603 35369
L52603 35481
L52659 35593
L52715 35650
L52828 35706
L53053 35762
L53334 35762
L53559 35706
L53671 35650
L53728 35593
L53784 35481
L53784 35369
L53728 35256
L53671 35200
L53559 35144
L53334 35087
L53053 35087
L52828 35144
L52715 35200
L52659 35256
L52603 35369
" />
<path d="M52546 37112
L54065 36100
" />
<path d="M52715 37450
L52659 37506
L52603 37618
L52603 37899
L52659 38012
L52715 38068
L52828 38124
L52940 38124
L53109 38068
L53784 37393
L53784 38124
" />
<path d="M52603 38856
L52603 38968
L52659 39081
L52715 39137
L52828 39193
L53053 39249
L53334 39249
L53559 39193
L53671 39137
L53728 39081
L53784 38968
L53784 38856
L53728 38743
L53671 38687
L53559 38631
L53334 38574
L53053 38574
L52828 38631
L52715 38687
L52659 38743
L52603 38856
" />
<path d="M52715 39699
L52659 39755
L52603 39868
L52603 40149
L52659 40262
L52715 40318
L52828 40374
L52940 40374
L53109 40318
L53784 39643
L53784 40374
" />
<path d="M52603 41105
L52603 41218
L52659 41330
L52715 41387
L52828 41443
L53053 41499
L53334 41499
L53559 41443
L53671 41387
L53728 41330
L53784 41218
L53784 41105
L53728 40993
L53671 40937
L53559 40880
L53334 40824
L53053 40824
L52828 40880
L52715 40937
L52659 40993
L52603 41105
" />
<path d="M52996 42793
L53784 43074
L52996 43355
" />
<path d="M53784 44424
L53784 43749
" />
<path d="M53784 44086
L52603 44086
L52771 43974
L52884 43861
L52940 43749
" />
<path d="M55428 28669
L55484 28557
L55484 28332
L55428 28219
L55371 28163
L55259 28107
L54921 28107
L54809 28163
L54753 28219
L54696 28332
L54696 28557
L54753 28669
" />
<path d="M54696 29682
L55484 29682
" />
<path d="M54696 29175
L55315 29175
L55428 29232
L55484 29344
L55484 29513
L55428 29625
L55371 29682
" />
<path d="M55484 30244
L54696 30244
" />
<path d="M54921 30244
L54809 30300
L54753 30357
L54696 30469
L54696 30582
" />
<path d="M55484 30975
L54696 30975
" />
<path d="M54303 30975
L54359 30919
L54415 30975
L54359 31032
L54303 30975
L54415 30975
" />
<path d="M55484 31706
L55428 31594
L55371 31538
L55259 31481
L54921 31481
L54809 31538
L54753 31594
L54696 31706
L54696 31875
L54753 31988
L54809 32044
L54921 32100
L55259 32100
L55371 32044
L55428 31988
L55484 31875
L55484 31706
" />
<path d="M54696 33112
L55484 33112
" />
<path d="M54696 32606
L55315 32606
L55428 32663
L55484 32775
L55484 32944
L55428 33056
L55371 33112
" />
<path d="M55428 33619
L55484 33731
L55484 33956
L55428 34069
L55315 34125
L55259 34125
L55146 34069
L55090 33956
L55090 33787
L55034 33675
L54921 33619
L54865 33619
L54753 33675
L54696 33787
L54696 33956
L54753 34069
" />
<path d="M55428 35081
L55484 34969
L55484 34744
L55428 34631
L55315 34575
L54865 34575
L54753 34631
L54696 34744
L54696 34969
L54753 35081
L54865 35137
L54978 35137
L55090 34575
" />
<path d="M55484 35812
L55428 35700
L55315 35643
L54303 35643
" />
<path d="M55428 36712
L55484 36600
L55484 36375
L55428 36262
L55315 36206
L54865 36206
L54753 36262
L54696 36375
L54696 36600
L54753 36712
L54865 36768
L54978 36768
L55090 36206
" />
<path d="M55428 37781
L55484 37668
L55484 37443
L55428 37331
L55371 37274
L55259 37218
L54921 37218
L54809 37274
L54753 37331
L54696 37443
L54696 37668
L54753 37781
" />
<path d="M54696 38118
L54696 38568
" />
<path d="M54303 38287
L55315 38287
L55428 38343
L55484 38456
L55484 38568
" />
<path d="M55484 38962
L54696 38962
" />
<path d="M54921 38962
L54809 39018
L54753 39074
L54696 39187
L54696 39299
" />
<path d="M55484 39693
L54696 39693
" />
<path d="M54303 39693
L54359 39637
L54415 39693
L54359 39749
L54303 39693
L54415 39693
" />
<path d="M55428 40762
L55484 40649
L55484 40424
L55428 40312
L55371 40255
L55259 40199
L54921 40199
L54809 40255
L54753 40312
L54696 40424
L54696 40649
L54753 40762
" />
<path d="M55371 41268
L55428 41324
L55484 41268
L55428 41211
L55371 41268
L55484 41268
" />
<path d="M55428 42336
L55484 42224
L55484 41999
L55428 41886
L55371 41830
L55259 41774
L54921 41774
L54809 41830
L54753 41886
L54696 41999
L54696 42224
L54753 42336
" />
<path d="M55484 43011
L55428 42899
L55371 42843
L55259 42786
L54921 42786
L54809 42843
L54753 42899
L54696 43011
L54696 43180
L54753 43292
L54809 43349
L54921 43405
L55259 43405
L55371 43349
L55428 43292
L55484 43180
L55484 43011
" />
<path d="M55371 43911
L55428 43967
L55484 43911
L55428 43855
L55371 43911
L55484 43911
" />
<path d="M54696 44980
L55484 44980
" />
<path d="M54696 44474
L55315 44474
L55428 44530
L55484 44642
L55484 44811
L55428 44924
L55371 44980
" />
<path d="M55484 45542
L54303 45542
" />
<path d="M55034 45655
L55484 45992
" />
<path d="M54696 45992
L55146 45542
" />
<path d="M56671 30800
L56615 30744
L56559 30632
L56559 30519
L56615 30407
L56671 30350
L56784 30294
L56896 30294
L57009 30350
L57065 30407
L57121 30519
L57121 30632
L57065 30744
L57009 30800
" />
<path d="M56559 30800
L57009 30800
L57065 30857
L57065 30913
L57009 31025
L56896 31082
L56615 31082
L56446 30969
L56334 30800
L56278 30575
L56334 30350
L56446 30182
L56615 30069
L56840 30013
L57065 30069
L57234 30182
L57346 30350
L57403 30575
L57346 30800
L57234 30969
" />
<path d="M57178 32094
L57234 31981
L57234 31756
L57178 31644
L57121 31588
L57009 31531
L56671 31531
L56559 31588
L56503 31644
L56446 31756
L56446 31981
L56503 32094
" />
<path d="M56446 33106
L57234 33106
" />
<path d="M56446 32600
L57065 32600
L57178 32656
L57234 32769
L57234 32938
L57178 33050
L57121 33106
" />
<path d="M57234 33669
L56446 33669
" />
<path d="M56671 33669
L56559 33725
L56503 33781
L56446 33894
L56446 34006
" />
<path d="M57234 34400
L56446 34400
" />
<path d="M56053 34400
L56109 34344
L56165 34400
L56109 34456
L56053 34400
L56165 34400
" />
<path d="M57234 35131
L57178 35019
L57121 34962
L57009 34906
L56671 34906
L56559 34962
L56503 35019
L56446 35131
L56446 35300
L56503 35412
L56559 35468
L56671 35525
L57009 35525
L57121 35468
L57178 35412
L57234 35300
L57234 35131
" />
<path d="M56446 36537
L57234 36537
" />
<path d="M56446 36031
L57065 36031
L57178 36087
L57234 36200
L57234 36368
L57178 36481
L57121 36537
" />
<path d="M57178 37043
L57234 37156
L57234 37381
L57178 37493
L57065 37549
L57009 37549
L56896 37493
L56840 37381
L56840 37212
L56784 37100
L56671 37043
L56615 37043
L56503 37100
L56446 37212
L56446 37381
L56503 37493
" />
<path d="M57178 38506
L57234 38393
L57234 38168
L57178 38056
L57065 37999
L56615 37999
L56503 38056
L56446 38168
L56446 38393
L56503 38506
L56615 38562
L56728 38562
L56840 37999
" />
<path d="M57234 39237
L57178 39124
L57065 39068
L56053 39068
" />
<path d="M57178 40137
L57234 40024
L57234 39799
L57178 39687
L57065 39630
L56615 39630
L56503 39687
L56446 39799
L56446 40024
L56503 40137
L56615 40193
L56728 40193
L56840 39630
" />
<path d="M57178 41205
L57234 41093
L57234 40868
L57178 40755
L57121 40699
L57009 40643
L56671 40643
L56559 40699
L56503 40755
L56446 40868
L56446 41093
L56503 41205
" />
<path d="M56446 41543
L56446 41993
" />
<path d="M56053 41711
L57065 41711
L57178 41768
L57234 41880
L57234 41993
" />
<path d="M57234 42386
L56446 42386
" />
<path d="M56671 42386
L56559 42443
L56503 42499
L56446 42611
L56446 42724
" />
<path d="M57234 43117
L56446 43117
" />
<path d="M56053 43117
L56109 43061
L56165 43117
L56109 43174
L56053 43117
L56165 43117
" />
<path d="M57178 44186
L57234 44074
L57234 43849
L57178 43736
L57121 43680
L57009 43624
L56671 43624
L56559 43680
L56503 43736
L56446 43849
L56446 44074
L56503 44186
" />
<g >
</g>
<g style="fill:#000000; fill-opacity:0.0; 
stroke:#000000; stroke-width:0; stroke-opacity:1; 
stroke-linecap:round; stroke-linejoin:round;">
</g>
<g style="fill:#000000; fill-opacity:1.0; 
stroke:#000000; stroke-width:0; stroke-opacity:1; 
stroke-linecap:round; stroke-linejoin:round;">
<path style="fill:#000000; fill-opacity:1.0; 
stroke:#000000; stroke-width:0; stroke-opacity:1; 
stroke-linecap:round; stroke-linejoin:round;fill-rule:evenodd;"
d="M 54509,51212
53328,51212
53328,50425
54509,50425
54509,51212
Z" /> 
</g>
<g style="fill:#000000; fill-opacity:1.0; 
stroke:#000000; stroke-width:787.402; stroke-opacity:1; 
stroke-linecap:round; stroke-linejoin:round;">
</g>
<g style="fill:#000000; fill-opacity:0.0; 
stroke:#000000; stroke-width:787.402; stroke-opacity:1; 
stroke-linecap:round; stroke-linejoin:round;">
<path d="M53722 22472
L54116 22472
" />
</g>
<g >
</g>
<g style="fill:#000000; fill-opacity:1.0; 
stroke:#000000; stroke-width:0; stroke-opacity:1; 
stroke-linecap:round; stroke-linejoin:round;">
<circle cx="48650" cy="26550" r="354.331" /> 
</g>
<g style="fill:#000000; fill-opacity:1.0; 
stroke:#000000; stroke-width:39.3701; stroke-opacity:1; 
stroke-linecap:round; stroke-linejoin:round;">
</g>
<g style="fill:#000000; fill-opacity:1.0; 
stroke:#000000; stroke-width:0; stroke-opacity:1; 
stroke-linecap:round; stroke-linejoin:round;">
<circle cx="48650" cy="27350" r="354.331" /> 
</g>
<g style="fill:#000000; fill-opacity:1.0; 
stroke:#000000; stroke-width:39.3701; stroke-opacity:1; 
stroke-linecap:round; stroke-linejoin:round;">
</g>
<g style="fill:#000000; fill-opacity:1.0; 
stroke:#000000; stroke-width:0; stroke-opacity:1; 
stroke-linecap:round; stroke-linejoin:round;">
<circle cx="47750" cy="26000" r="492" /> 
</g>
<g style="fill:#000000; fill-opacity:1.0; 
stroke:#000000; stroke-width:39.3701; stroke-opacity:1; 
stroke-linecap:round; stroke-linejoin:round;">
</g>
<g style="fill:#000000; fill-opacity:1.0; 
stroke:#000000; stroke-width:0; stroke-opacity:1; 
stroke-linecap:round; stroke-linejoin:round;">
<path style="fill:#000000; fill-opacity:1.0; 
stroke:#000000; stroke-width:0; stroke-opacity:1; 
stroke-linecap:round; stroke-linejoin:round;fill-rule:evenodd;"
d="M 48242,28492
47258,28492
47258,27508
48242,27508
48242,28492
Z" /> 
</g>
<g >
<circle cx="48650" cy="46550" r="354.331" /> 
</g>
<g style="fill:#000000; fill-opacity:1.0; 
stroke:#000000; stroke-width:39.3701; stroke-opacity:1; 
stroke-linecap:round; stroke-linejoin:round;">
</g>
<g style="fill:#000000; fill-opacity:1.0; 
stroke:#000000; stroke-width:0; stroke-opacity:1; 
stroke-linecap:round; stroke-linejoin:round;">
<circle cx="48650" cy="47350" r="354.331" /> 
</g>
<g style="fill:#000000; fill-opacity:1.0; 
stroke:#000000; stroke-width:39.3701; stroke-opacity:1; 
stroke-linecap:round; stroke-linejoin:round;">
</g>
<g style="fill:#000000; fill-opacity:1.0; 
stroke:#000000; stroke-width:0; stroke-opacity:1; 
stroke-linecap:round; stroke-linejoin:round;">
<circle cx="47750" cy="46000" r="492" /> 
</g>
<g style="fill:#000000; fill-opacity:1.0; 
stroke:#000000; stroke-width:39.3701; stroke-opacity:1; 
stroke-linecap:round; stroke-linejoin:round;">
</g>
<g style="fill:#000000; fill-opacity:1.0; 
stroke:#000000; stroke-width:0; stroke-opacity:1; 
stroke-linecap:round; stroke-linejoin:round;">
<path style="fill:#000000; fill-opacity:1.0; 
stroke:#000000; stroke-width:0; stroke-opacity:1; 
stroke-linecap:round; stroke-linejoin:round;fill-rule:evenodd;"
d="M 48242,48492
47258,48492
47258,47508
48242,47508
48242,48492
Z" /> 
</g>
<g >
</g>
<g >
</g>
<g >
</g>
<g >
</g>
<g >
</g>
<g >
</g>
<g >
</g>
<g >
</g>
<g >
</g>
<g >
</g>
<g >
</g>
<g >
</g>
<g >
<circle cx="47026.1" cy="21986" r="577.697" /> 
</g>
<g style="fill:#000000; fill-opacity:1.0; 
stroke:#000000; stroke-width:39.3701; stroke-opacity:1; 
stroke-linecap:round; stroke-linejoin:round;">
</g>
<g style="fill:#000000; fill-opacity:1.0; 
stroke:#000000; stroke-width:0; stroke-opacity:1; 
stroke-linecap:round; stroke-linejoin:round;">
<circle cx="60763.7" cy="21986" r="577.697" /> 
</g>
<g style="fill:#000000; fill-opacity:1.0; 
stroke:#000000; stroke-width:39.3701; stroke-opacity:1; 
stroke-linecap:round; stroke-linejoin:round;">
</g>
<g style="fill:#000000; fill-opacity:1.0; 
stroke:#000000; stroke-width:0; stroke-opacity:1; 
stroke-linecap:round; stroke-linejoin:round;">
<circle cx="60763.7" cy="51471.7" r="577.697" /> 
</g>
<g style="fill:#000000; fill-opacity:1.0; 
stroke:#000000; stroke-width:39.3701; stroke-opacity:1; 
stroke-linecap:round; stroke-linejoin:round;">
</g>
<g style="fill:#000000; fill-opacity:1.0; 
stroke:#000000; stroke-width:0; stroke-opacity:1; 
stroke-linecap:round; stroke-linejoin:round;">
<circle cx="47026.1" cy="51471.7" r="577.697" /> 
</g>
<g style="fill:#000000; fill-opacity:1.0; 
stroke:#000000; stroke-width:39.3701; stroke-opacity:1; 
stroke-linecap:round; stroke-linejoin:round;">
</g>
<g >
</g>
<g style="fill:#000000; fill-opacity:1.0; 
stroke:#000000; stroke-width:0; stroke-opacity:1; 
stroke-linecap:round; stroke-linejoin:round;">
<circle cx="46400" cy="38750" r="125" /> 
</g>
<g style="fill:#000000; fill-opacity:1.0; 
stroke:#000000; stroke-width:39.3701; stroke-opacity:1; 
stroke-linecap:round; stroke-linejoin:round;">
</g>
<g style="fill:#000000; fill-opacity:1.0; 
stroke:#000000; stroke-width:0; stroke-opacity:1; 
stroke-linecap:round; stroke-linejoin:round;">
<circle cx="46400" cy="33400" r="125" /> 
</g>
<g style="fill:#000000; fill-opacity:1.0; 
stroke:#000000; stroke-width:39.3701; stroke-opacity:1; 
stroke-linecap:round; stroke-linejoin:round;">
</g>
<g style="fill:#000000; fill-opacity:1.0; 
stroke:#000000; stroke-width:0; stroke-opacity:1; 
stroke-linecap:round; stroke-linejoin:round;">
<circle cx="49100" cy="42150" r="125" /> 
</g>
<g style="fill:#000000; fill-opacity:1.0; 
stroke:#000000; stroke-width:39.3701; stroke-opacity:1; 
stroke-linecap:round; stroke-linejoin:round;">
</g>
<g style="fill:#000000; fill-opacity:1.0; 
stroke:#000000; stroke-width:0; stroke-opacity:1; 
stroke-linecap:round; stroke-linejoin:round;">
<circle cx="46700" cy="38300" r="125" /> 
</g>
<g style="fill:#000000; fill-opacity:1.0; 
stroke:#000000; stroke-width:39.3701; stroke-opacity:1; 
stroke-linecap:round; stroke-linejoin:round;">
</g>
<g style="fill:#000000; fill-opacity:1.0; 
stroke:#000000; stroke-width:0; stroke-opacity:1; 
stroke-linecap:round; stroke-linejoin:round;">
<circle cx="46950" cy="38700" r="125" /> 
</g>
<g style="fill:#000000; fill-opacity:1.0; 
stroke:#000000; stroke-width:39.3701; stroke-opacity:1; 
stroke-linecap:round; stroke-linejoin:round;">
</g>
<g style="fill:#000000; fill-opacity:1.0; 
stroke:#000000; stroke-width:0; stroke-opacity:1; 
stroke-linecap:round; stroke-linejoin:round;">
<circle cx="49000" cy="40450" r="125" /> 
</g>
<g style="fill:#000000; fill-opacity:1.0; 
stroke:#000000; stroke-width:39.3701; stroke-opacity:1; 
stroke-linecap:round; stroke-linejoin:round;">
</g>
<g >
</g>
<g style="fill:#000000; fill-opacity:1.0; 
stroke:#000000; stroke-width:118.11; stroke-opacity:1; 
stroke-linecap:round; stroke-linejoin:round;">
</g>
<g style="fill:#000000; fill-opacity:0.0; 
stroke:#000000; stroke-width:118.11; stroke-opacity:1; 
stroke-linecap:round; stroke-linejoin:round;">
<path d="M46400 38750
L46400 33400
" />
</g>
<g style="fill:#000000; fill-opacity:0.0; 
stroke:#000000; stroke-width:300; stroke-opacity:1; 
stroke-linecap:round; stroke-linejoin:round;">
<path d="M52527 22472
L53919 22472
" />
<path d="M51300 23700
L52527 22472
" />
<path d="M51300 26300
L51300 23700
" />
<path d="M50250 27350
L51300 26300
" />
<path d="M48650 27350
L50250 27350
" />
</g>
<g style="fill:#000000; fill-opacity:0.0; 
stroke:#000000; stroke-width:118.11; stroke-opacity:1; 
stroke-linecap:round; stroke-linejoin:round;">
<path d="M49100 42150
L48100 42150
" />
<path d="M48100 42150
L46700 40750
" />
<path d="M46700 40750
L46700 38300
" />
<path d="M46950 38700
L46950 39100
" />
<path d="M46950 39100
L48300 40450
" />
<path d="M48300 40450
L49000 40450
" />
</g>
<g >
</g>
<g style="fill:#000000; fill-opacity:1.0; 
stroke:#000000; stroke-width:100; stroke-opacity:1; 
stroke-linecap:round; stroke-linejoin:round;">
<path style="fill:#000000; fill-opacity:1.0; 
stroke:#000000; stroke-width:100; stroke-opacity:1; 
stroke-linecap:round; stroke-linejoin:round;fill-rule:evenodd;"
d="M 60236,21343
60120,21458
60030,21593
59967,21744
59936,21904
59936,22067
59967,22227
60030,22378
60120,22513
60236,22628
60371,22719
60522,22781
60682,22813
60845,22813
61005,22781
61155,22719
61291,22628
61406,22513
61471,22416
61471,51041
61406,50944
61291,50828
61155,50738
61005,50675
60845,50643
60682,50643
60522,50675
60371,50738
60236,50828
60120,50944
60030,51079
59967,51230
59936,51390
59936,51553
59967,51713
60030,51863
60120,51999
60236,52114
60333,52179
47456,52179
47553,52114
47669,51999
47759,51863
47821,51713
47853,51553
47853,51390
47821,51230
47759,51079
47669,50944
47553,50828
47418,50738
47267,50675
47107,50643
46944,50643
46784,50675
46634,50738
46498,50828
46383,50944
46318,51041
46318,50425
53077,50425
53077,51212
53082,51261
53096,51308
53119,51352
53151,51390
53189,51421
53232,51444
53279,51458
53328,51463
54509,51463
54558,51458
54605,51444
54649,51421
54687,51390
54718,51352
54741,51308
54756,51261
54761,51212
54761,50425
54756,50376
54741,50329
54718,50285
54687,50247
54649,50216
54605,50193
54558,50178
54509,50173
53328,50173
53279,50178
53232,50193
53189,50216
53151,50247
53119,50285
53096,50329
53082,50376
53077,50425
46318,50425
46318,48492
47006,48492
47011,48541
47025,48588
47049,48631
47080,48669
47118,48700
47161,48724
47208,48738
47258,48743
47637,48742
47700,48679
47700,48050
47800,48050
47800,48679
47862,48742
48242,48743
48291,48738
48338,48724
48381,48700
48419,48669
48450,48631
48474,48588
48488,48541
48493,48492
48492,48112
48429,48050
47800,48050
47700,48050
47070,48050
47008,48112
47006,48492
46318,48492
46318,47508
47006,47508
47008,47887
47070,47950
47700,47950
47700,47320
47637,47258
47258,47256
47208,47261
47161,47275
47118,47299
47080,47330
47049,47368
47025,47411
47011,47458
47006,47508
46318,47508
46318,45926
47008,45926
47008,46073
47036,46216
47092,46351
47173,46472
47277,46576
47398,46657
47533,46713
47676,46742
47823,46742
47966,46713
48058,46675
48068,46726
48114,46836
48180,46935
48193,46948
48185,46956
48231,47001
48130,47034
48079,47142
48049,47257
48049,47257
47862,47258
47800,47320
47800,47950
48429,47950
48455,47923
48557,47950
48676,47956
48794,47939
48906,47900
48965,47869
48998,47768
48650,47420
48644,47426
48573,47355
48579,47350
48573,47344
48644,47273
48650,47279
48655,47273
48726,47344
48720,47350
49068,47698
49169,47665
49220,47557
49250,47442
49256,47323
49239,47205
49200,47093
49169,47034
49068,47001
49114,46956
49106,46948
49119,46935
49185,46836
49231,46726
49254,46609
49254,46490
49231,46373
49185,46263
49119,46164
49035,46080
48936,46014
48826,45968
48709,45945
48590,45945
48492,45965
48492,45926
48463,45783
48407,45648
48326,45527
48222,45423
48101,45342
47966,45286
47823,45258
47676,45258
47533,45286
47398,45342
47277,45423
47173,45527
47092,45648
47036,45783
47008,45926
46318,45926
46318,38263
46325,38263
46325,38336
46339,38409
46367,38477
46390,38512
46390,40734
46389,40750
46390,40765
46390,40765
46395,40810
46413,40868
46441,40922
46480,40969
46492,40979
47870,42357
47880,42369
47892,42379
47892,42379
47903,42388
47927,42408
47981,42436
48025,42450
48039,42454
48045,42455
48084,42459
48084,42459
48099,42460
48115,42459
48887,42459
48922,42482
48990,42510
49063,42525
49136,42525
49209,42510
49277,42482
49339,42441
49391,42389
49432,42327
49460,42259
49475,42186
49475,42113
49460,42040
49432,41972
49391,41910
49339,41858
49277,41817
49209,41789
49136,41775
49063,41775
48990,41789
48922,41817
48887,41840
48228,41840
47009,40621
47009,39596
48070,40657
48080,40669
48092,40679
48092,40679
48103,40688
48127,40708
48181,40736
48224,40750
48239,40754
48245,40755
48284,40759
48284,40759
48299,40760
48315,40759
48787,40759
48822,40782
48890,40810
48963,40825
49036,40825
49109,40810
49177,40782
49239,40741
49291,40689
49332,40627
49360,40559
49375,40486
49375,40413
49360,40340
49332,40272
49291,40210
49239,40158
49177,40117
49109,40089
49036,40075
48963,40075
48890,40089
48822,40117
48787,40140
48428,40140
47259,38971
47259,38912
47282,38877
47310,38809
47325,38736
47325,38663
47310,38590
47282,38522
47241,38460
47189,38408
47127,38367
47073,38345
47075,38336
47075,38263
47060,38190
47032,38122
46991,38060
46939,38008
46877,37967
46809,37939
46736,37925
46663,37925
46590,37939
46522,37967
46460,38008
46408,38060
46367,38122
46339,38190
46325,38263
46318,38263
46318,29882
52090,29882
52090,45017
53790,45017
53790,46246
53754,46250
53596,46298
53450,46376
53322,46481
53217,46609
53138,46755
53090,46913
53078,47037
53078,47907
53090,48030
53138,48189
53217,48335
53322,48463
53450,48568
53596,48646
53754,48694
53919,48710
54084,48694
54242,48646
54388,48568
54516,48463
54621,48335
54699,48189
54747,48030
54759,47907
54759,47037
54747,46913
54699,46755
54621,46609
54602,46585
56298,46585
56298,44779
58048,44779
58048,29420
56298,29420
56298,27514
53790,27514
53790,29882
52090,29882
46318,29882
46318,28492
47006,28492
47011,28541
47025,28588
47049,28631
47080,28669
47118,28700
47161,28724
47208,28738
47258,28743
47637,28742
47700,28679
47700,28050
47800,28050
47800,28679
47862,28742
48242,28743
48291,28738
48338,28724
48381,28700
48419,28669
48450,28631
48474,28588
48488,28541
48493,28492
48492,28112
48429,28050
47800,28050
47700,28050
47070,28050
47008,28112
47006,28492
46318,28492
46318,27508
47006,27508
47008,27887
47070,27950
47700,27950
47700,27320
47637,27258
47258,27256
47208,27261
47161,27275
47118,27299
47080,27330
47049,27368
47025,27411
47011,27458
47006,27508
46318,27508
46318,25926
47008,25926
47008,26073
47036,26216
47092,26351
47173,26472
47277,26576
47398,26657
47533,26713
47676,26742
47823,26742
47966,26713
48058,26675
48068,26726
48114,26836
48180,26935
48193,26948
48185,26956
48231,27001
48130,27034
48079,27142
48049,27257
48049,27257
47862,27258
47800,27320
47800,27950
48429,27950
48455,27923
48557,27950
48676,27956
48794,27939
48906,27900
48965,27869
48998,27768
48650,27420
48644,27426
48573,27355
48579,27350
48573,27344
48644,27273
48650,27279
48655,27273
48726,27344
48720,27350
49068,27698
49169,27665
49220,27557
49250,27442
49256,27323
49239,27205
49200,27093
49169,27034
49068,27001
49114,26956
49106,26948
49119,26935
49185,26836
49231,26726
49254,26609
49254,26490
49231,26373
49185,26263
49119,26164
49035,26080
48936,26014
48826,25968
48709,25945
48590,25945
48492,25965
48492,25926
48463,25783
48407,25648
48326,25527
48222,25423
48163,25383
53078,25383
53078,26253
53090,26377
53138,26535
53217,26681
53322,26809
53450,26914
53596,26992
53754,27040
53919,27057
54084,27040
54242,26992
54388,26914
54516,26809
54621,26681
54699,26535
54747,26377
54759,26253
54759,25383
54747,25260
54699,25101
54621,24955
54516,24827
54388,24722
54242,24644
54084,24596
53919,24580
53754,24596
53596,24644
53450,24722
53322,24827
53217,24955
53138,25101
53090,25260
53078,25383
48163,25383
48101,25342
47966,25286
47823,25258
47676,25258
47533,25286
47398,25342
47277,25423
47173,25527
47092,25648
47036,25783
47008,25926
46318,25926
46318,22416
46383,22513
46498,22628
46634,22719
46784,22781
46944,22813
47107,22813
47267,22781
47418,22719
47553,22628
47560,22622
53096,22622
53108,22672
53159,22788
53231,22892
53323,22979
53429,23048
53547,23094
53672,23116
53869,23116
53869,22522
53969,22522
53969,23116
54166,23116
54290,23094
54408,23048
54515,22979
54606,22892
54679,22788
54729,22672
54742,22622
54695,22522
53969,22522
53869,22522
53143,22522
53096,22622
47560,22622
47669,22513
47759,22378
47782,22322
53096,22322
53143,22422
53869,22422
53869,22414
53969,22414
53969,22422
54695,22422
54742,22322
54729,22272
54679,22156
54606,22052
54515,21965
54408,21896
54290,21850
54166,21828
53672,21828
53547,21850
53429,21896
53323,21965
53231,22052
53159,22156
53108,22272
53096,22322
47782,22322
47821,22227
47853,22067
47853,21904
47821,21744
47759,21593
47669,21458
47553,21343
47456,21278
60333,21278
60236,21343
Z" /> 
</g>
</g> 
</svg>
