<?xml version="1.0" standalone="no"?>
 <!DOCTYPE svg PUBLIC "-//W3C//DTD SVG 1.1//EN" 
 "http://www.w3.org/Graphics/SVG/1.1/DTD/svg11.dtd"> 
<svg xmlns="http://www.w3.org/2000/svg" version="1.1" 
    width="29.7002cm" height="21.0007cm" viewBox="0 0 116930 82680 ">
<title>SVG Picture created as SolarCharger2020-Edge_Cuts.svg date 2020/12/17 14:49:22 </title>
  <desc>Picture generated by PCBNEW </desc>
<g style="fill:#000000; fill-opacity:1;stroke:#000000; stroke-opacity:1;
stroke-linecap:round; stroke-linejoin:round; "
 transform="translate(0 0) scale(1 1)">
</g>
<g style="fill:#000000; fill-opacity:0.0; 
stroke:#000000; stroke-width:-0.000393701; stroke-opacity:1; 
stroke-linecap:round; stroke-linejoin:round;">
</g>
<g style="fill:#000000; fill-opacity:0.0; 
stroke:#000000; stroke-width:39.3701; stroke-opacity:1; 
stroke-linecap:round; stroke-linejoin:round;">
<path d="M46837 21008
L60951 21008
" />
<path d="M60951 21008
L61032 21012
" />
<path d="M61032 21012
L61111 21024
" />
<path d="M61111 21024
L61187 21043
" />
<path d="M61187 21043
L61259 21070
" />
<path d="M61259 21070
L61328 21103
" />
<path d="M61328 21103
L61393 21143
" />
<path d="M61393 21143
L61454 21188
" />
<path d="M61454 21188
L61510 21239
" />
<path d="M61510 21239
L61561 21295
" />
<path d="M61561 21295
L61606 21355
" />
<path d="M61606 21355
L61646 21421
" />
<path d="M61646 21421
L61679 21490
" />
<path d="M61679 21490
L61705 21562
" />
<path d="M61705 21562
L61725 21638
" />
<path d="M61725 21638
L61737 21716
" />
<path d="M61737 21716
L61741 21797
" />
<path d="M61741 21797
L61741 51659
" />
<path d="M61741 51659
L61737 51740
" />
<path d="M61737 51740
L61725 51819
" />
<path d="M61725 51819
L61705 51895
" />
<path d="M61705 51895
L61679 51967
" />
<path d="M61679 51967
L61646 52036
" />
<path d="M61646 52036
L61606 52101
" />
<path d="M61606 52101
L61561 52162
" />
<path d="M61561 52162
L61510 52218
" />
<path d="M61510 52218
L61454 52269
" />
<path d="M61454 52269
L61393 52314
" />
<path d="M61393 52314
L61328 52354
" />
<path d="M61328 52354
L61259 52387
" />
<path d="M61259 52387
L61187 52413
" />
<path d="M61187 52413
L61111 52433
" />
<path d="M61111 52433
L61032 52445
" />
<path d="M61032 52445
L60951 52449
" />
<path d="M60951 52449
L46837 52449
" />
<path d="M46837 52449
L46756 52445
" />
<path d="M46756 52445
L46678 52433
" />
<path d="M46678 52433
L46602 52413
" />
<path d="M46602 52413
L46530 52387
" />
<path d="M46530 52387
L46461 52354
" />
<path d="M46461 52354
L46396 52314
" />
<path d="M46396 52314
L46335 52269
" />
<path d="M46335 52269
L46279 52218
" />
<path d="M46279 52218
L46228 52162
" />
<path d="M46228 52162
L46183 52101
" />
<path d="M46183 52101
L46143 52036
" />
<path d="M46143 52036
L46110 51967
" />
<path d="M46110 51967
L46084 51895
" />
<path d="M46084 51895
L46064 51819
" />
<path d="M46064 51819
L46052 51740
" />
<path d="M46052 51740
L46048 51659
" />
<path d="M46048 51659
L46048 21797
" />
<path d="M46048 21797
L46052 21716
" />
<path d="M46052 21716
L46064 21638
" />
<path d="M46064 21638
L46084 21562
" />
<path d="M46084 21562
L46110 21490
" />
<path d="M46110 21490
L46143 21421
" />
<path d="M46143 21421
L46183 21355
" />
<path d="M46183 21355
L46228 21295
" />
<path d="M46228 21295
L46279 21239
" />
<path d="M46279 21239
L46335 21188
" />
<path d="M46335 21188
L46396 21143
" />
<path d="M46396 21143
L46461 21103
" />
<path d="M46461 21103
L46530 21070
" />
<path d="M46530 21070
L46602 21043
" />
<path d="M46602 21043
L46678 21024
" />
<path d="M46678 21024
L46756 21012
" />
<path d="M46756 21012
L46837 21008
" />
<path d="M46837 21008
L46837 21008
" />
<path d="M46837 21008
L46837 21008
" />
<g >
</g>
<g >
</g>
<g >
</g>
<g >
</g>
<g >
</g>
<g >
</g>
<g >
</g>
<g >
</g>
<g >
</g>
<g >
</g>
<g >
</g>
<g >
</g>
<g >
</g>
<g >
</g>
<g >
</g>
<g >
</g>
<g >
</g>
</g> 
</svg>
