M48
; DRILL file {KiCad (5.1.0)-1} date 16/11/2020 17:57:19
; FORMAT={-:-/ absolute / inch / decimal}
; #@! TF.CreationDate,2020-11-16T17:57:19+00:00
; #@! TF.GenerationSoftware,Kicad,Pcbnew,(5.1.0)-1
FMAT,2
INCH
T1C0.0197
T2C0.0200
T3C0.0315
T4C0.0394
T5C0.1155
T6C0.1181
%
G90
G05
T2
X0.79Y1.76
X0.79Y1.225
X0.82Y1.27
X0.845Y1.23
X1.05Y1.055
X1.06Y0.885
T3
X1.015Y0.445
X1.015Y0.365
X1.015Y2.445
X1.015Y2.365
T4
X0.925Y0.5
X0.925Y0.3
X0.925Y2.5
X0.925Y2.3
T5
X0.8526Y2.9014
X0.8526Y-0.0472
X2.2264Y2.9014
X2.2264Y-0.0472
T1
G00X1.5203Y2.8528
M15
G01X1.5636Y2.8528
M16
G05
G00X1.5203Y0.0181
M15
G01X1.5636Y0.0181
M16
G05
T6
G00X1.5419Y2.4787
M15
G01X1.5419Y2.5575
M16
G05
G00X1.5419Y0.3134
M15
G01X1.5419Y0.3921
M16
G05
T0
M30
